<svg width="594" height="250" viewBox="0 0 594 250" fill="none" xmlns="http://www.w3.org/2000/svg">
<circle cx="469" cy="125" r="125" fill="#82D200" fill-opacity="0.8"/>
<path d="M363.355 102.696C364.171 101.992 364.995 101.24 365.827 100.44C366.659 99.64 367.419 98.832 368.107 98.016C368.795 97.2 369.355 96.408 369.787 95.64C370.219 94.856 370.435 94.136 370.435 93.48C370.435 92.984 370.251 92.624 369.883 92.4C369.531 92.176 369.099 92.064 368.587 92.064C368.331 92.064 368.043 92.104 367.723 92.184C367.419 92.248 367.099 92.344 366.763 92.472C366.443 92.6 366.131 92.768 365.827 92.976C365.523 93.168 365.243 93.384 364.987 93.624L363.115 91.152C363.947 90.4 364.859 89.832 365.851 89.448C366.843 89.048 367.939 88.848 369.139 88.848C369.955 88.848 370.691 88.952 371.347 89.16C372.019 89.352 372.587 89.64 373.051 90.024C373.531 90.392 373.899 90.848 374.155 91.392C374.411 91.936 374.539 92.56 374.539 93.264C374.539 94.064 374.387 94.824 374.083 95.544C373.779 96.248 373.339 96.952 372.763 97.656C372.203 98.344 371.515 99.048 370.699 99.768C369.899 100.472 368.995 101.224 367.987 102.024L374.923 101.592V105H363.355V102.696ZM383.06 105.312C382.164 105.312 381.34 105.12 380.588 104.736C379.852 104.336 379.212 103.776 378.668 103.056C378.14 102.32 377.724 101.44 377.42 100.416C377.116 99.392 376.964 98.248 376.964 96.984C376.964 95.72 377.116 94.584 377.42 93.576C377.724 92.568 378.14 91.72 378.668 91.032C379.212 90.328 379.852 89.792 380.588 89.424C381.34 89.04 382.164 88.848 383.06 88.848C383.94 88.848 384.756 89.032 385.508 89.4C386.276 89.768 386.932 90.304 387.476 91.008C388.02 91.696 388.444 92.544 388.748 93.552C389.068 94.56 389.228 95.704 389.228 96.984C389.228 98.264 389.068 99.416 388.748 100.44C388.444 101.464 388.02 102.336 387.476 103.056C386.932 103.776 386.276 104.336 385.508 104.736C384.756 105.12 383.94 105.312 383.06 105.312ZM383.06 102.144C383.796 102.144 384.324 101.696 384.644 100.8C384.98 99.904 385.148 98.632 385.148 96.984C385.148 96.312 385.108 95.672 385.028 95.064C384.948 94.456 384.82 93.92 384.644 93.456C384.468 92.976 384.244 92.6 383.972 92.328C383.716 92.04 383.412 91.896 383.06 91.896C382.692 91.896 382.38 92.04 382.124 92.328C381.884 92.6 381.684 92.976 381.524 93.456C381.364 93.92 381.244 94.464 381.164 95.088C381.1 95.696 381.068 96.328 381.068 96.984C381.068 98.632 381.244 99.904 381.596 100.8C381.964 101.696 382.452 102.144 383.06 102.144ZM390.814 98.376L392.134 98.28C392.086 97.896 392.062 97.544 392.062 97.224C392.062 97.112 392.062 97.008 392.062 96.912C392.062 96.8 392.07 96.68 392.086 96.552H390.43L390.91 95.112L392.182 94.968C392.742 92.952 393.63 91.432 394.846 90.408C396.062 89.368 397.638 88.848 399.574 88.848C401.126 88.848 402.43 89.232 403.486 90L402.238 92.304C401.838 92.128 401.47 92 401.134 91.92C400.798 91.84 400.39 91.8 399.91 91.8C398.854 91.8 398.006 92.072 397.366 92.616C396.726 93.16 396.262 93.864 395.974 94.728L401.47 94.344L400.726 96.552H395.734C395.734 96.776 395.734 97.016 395.734 97.272C395.75 97.528 395.774 97.792 395.806 98.064L400.534 97.68L399.742 99.936H396.214C396.582 100.8 397.078 101.44 397.702 101.856C398.326 102.272 399.142 102.48 400.15 102.48C400.534 102.48 400.918 102.44 401.302 102.36C401.686 102.28 402.102 102.128 402.55 101.904L403.39 104.424C402.83 104.728 402.214 104.944 401.542 105.072C400.886 105.216 400.238 105.288 399.598 105.288C398.558 105.288 397.638 105.16 396.838 104.904C396.038 104.632 395.342 104.264 394.75 103.8C394.158 103.32 393.662 102.752 393.262 102.096C392.878 101.44 392.59 100.72 392.398 99.936H390.262L390.814 98.376ZM411.307 92.736L413.371 93.384C413.883 93.16 414.395 93 414.907 92.904C415.419 92.792 415.979 92.736 416.587 92.736C417.451 92.736 418.251 92.864 418.987 93.12C419.739 93.376 420.395 93.76 420.955 94.272C421.515 94.768 421.955 95.4 422.275 96.168C422.595 96.92 422.755 97.792 422.755 98.784C422.755 99.856 422.587 100.8 422.251 101.616C421.915 102.432 421.459 103.112 420.883 103.656C420.323 104.2 419.659 104.616 418.891 104.904C418.139 105.176 417.331 105.312 416.467 105.312C415.875 105.312 415.315 105.264 414.787 105.168C414.259 105.072 413.787 104.944 413.371 104.784V109.704L411.307 110.52V92.736ZM413.371 103.128C413.803 103.288 414.259 103.416 414.739 103.512C415.219 103.608 415.715 103.656 416.227 103.656C417.603 103.656 418.675 103.256 419.443 102.456C420.211 101.656 420.595 100.496 420.595 98.976C420.595 97.36 420.155 96.152 419.275 95.352C418.395 94.536 417.163 94.128 415.579 94.128C415.259 94.128 414.907 94.144 414.523 94.176C414.139 94.192 413.755 94.232 413.371 94.296V103.128ZM431.257 105.312C430.233 105.312 429.329 105.144 428.545 104.808C427.777 104.472 427.129 104.016 426.601 103.44C426.089 102.864 425.697 102.2 425.425 101.448C425.169 100.68 425.041 99.872 425.041 99.024C425.041 98.192 425.169 97.4 425.425 96.648C425.697 95.88 426.089 95.208 426.601 94.632C427.129 94.056 427.777 93.6 428.545 93.264C429.329 92.912 430.233 92.736 431.257 92.736C432.281 92.736 433.177 92.912 433.945 93.264C434.729 93.6 435.377 94.056 435.889 94.632C436.417 95.208 436.809 95.88 437.065 96.648C437.337 97.4 437.473 98.192 437.473 99.024C437.473 99.872 437.337 100.68 437.065 101.448C436.809 102.2 436.417 102.864 435.889 103.44C435.377 104.016 434.729 104.472 433.945 104.808C433.177 105.144 432.281 105.312 431.257 105.312ZM431.257 103.704C431.913 103.704 432.489 103.592 432.985 103.368C433.497 103.128 433.921 102.808 434.257 102.408C434.609 101.992 434.873 101.504 435.049 100.944C435.225 100.368 435.313 99.736 435.313 99.048C435.313 98.36 435.225 97.728 435.049 97.152C434.873 96.576 434.609 96.08 434.257 95.664C433.921 95.248 433.497 94.928 432.985 94.704C432.489 94.464 431.913 94.344 431.257 94.344C430.601 94.344 430.017 94.464 429.505 94.704C429.009 94.928 428.585 95.248 428.233 95.664C427.897 96.08 427.641 96.576 427.465 97.152C427.289 97.728 427.201 98.36 427.201 99.048C427.201 99.736 427.289 100.368 427.465 100.944C427.641 101.504 427.897 101.992 428.233 102.408C428.585 102.808 429.009 103.128 429.505 103.368C430.017 103.592 430.601 103.704 431.257 103.704ZM440.483 93.048H442.547V101.04C442.547 101.904 442.755 102.552 443.171 102.984C443.603 103.416 444.347 103.632 445.403 103.632C446.315 103.632 447.483 103.456 448.907 103.104V93.384L450.971 92.736V105.312L448.907 104.136C448.347 104.44 447.699 104.712 446.963 104.952C446.243 105.192 445.451 105.312 444.587 105.312C443.147 105.312 442.099 104.928 441.443 104.16C440.803 103.392 440.483 102.32 440.483 100.944V93.048ZM455.135 92.736L457.199 93.912C457.663 93.544 458.207 93.256 458.831 93.048C459.455 92.84 460.143 92.736 460.895 92.736C461.183 92.736 461.487 92.76 461.807 92.808L461.423 94.992C460.991 94.912 460.511 94.856 459.983 94.824C459.455 94.792 458.951 94.776 458.471 94.776C458.215 94.776 457.975 94.776 457.751 94.776C457.543 94.776 457.359 94.784 457.199 94.8V105H455.135V92.736ZM469.221 87.96L471.285 87.312V101.856C471.285 102.288 471.341 102.648 471.453 102.936C471.565 103.208 471.709 103.424 471.885 103.584C472.077 103.744 472.293 103.856 472.533 103.92C472.789 103.984 473.053 104.016 473.325 104.016C473.677 104.016 474.053 103.976 474.453 103.896V104.952C474.165 105.064 473.813 105.152 473.397 105.216C472.997 105.28 472.565 105.312 472.101 105.312C471.269 105.312 470.581 105.048 470.037 104.52C469.493 103.976 469.221 103.144 469.221 102.024V87.96ZM485.239 97.8C485.239 96.696 484.951 95.84 484.375 95.232C483.815 94.608 482.983 94.296 481.879 94.296C480.647 94.296 479.703 94.672 479.047 95.424C478.407 96.176 478.047 97.16 477.967 98.376L485.239 97.8ZM486.775 103.68C486.183 104.208 485.471 104.616 484.639 104.904C483.823 105.176 482.967 105.312 482.071 105.312C481.287 105.312 480.519 105.192 479.767 104.952C479.015 104.712 478.343 104.336 477.751 103.824C477.159 103.312 476.679 102.664 476.311 101.88C475.959 101.08 475.783 100.12 475.783 99C475.783 98.088 475.927 97.256 476.215 96.504C476.503 95.736 476.911 95.072 477.439 94.512C477.967 93.952 478.607 93.52 479.359 93.216C480.111 92.896 480.951 92.736 481.879 92.736C482.695 92.736 483.431 92.856 484.087 93.096C484.759 93.32 485.335 93.656 485.815 94.104C486.295 94.536 486.663 95.072 486.919 95.712C487.191 96.352 487.327 97.088 487.327 97.92C487.327 98.144 487.311 98.368 487.279 98.592C487.263 98.816 487.239 99.048 487.207 99.288H477.943C478.007 100.648 478.399 101.728 479.119 102.528C479.855 103.328 480.911 103.728 482.287 103.728C483.039 103.728 483.727 103.624 484.351 103.416C484.975 103.192 485.559 102.872 486.103 102.456L486.775 103.68ZM496.818 94.56H494.682V93.576L496.818 93.36V91.152C496.818 89.904 497.122 88.904 497.73 88.152C498.354 87.384 499.322 87 500.634 87C501.05 87 501.442 87.048 501.81 87.144C502.194 87.224 502.522 87.304 502.794 87.384L502.53 88.512C502.354 88.48 502.146 88.456 501.906 88.44C501.682 88.424 501.402 88.416 501.066 88.416C500.394 88.416 499.858 88.632 499.458 89.064C499.074 89.496 498.882 90.08 498.882 90.816V93.312L506.394 92.736V105H504.33V94.56H498.882V105H496.818V94.56ZM505.29 90.624C504.89 90.624 504.546 90.488 504.258 90.216C503.97 89.944 503.826 89.592 503.826 89.16C503.826 88.744 503.97 88.4 504.258 88.128C504.546 87.856 504.89 87.72 505.29 87.72C505.69 87.72 506.034 87.856 506.322 88.128C506.61 88.4 506.754 88.744 506.754 89.16C506.754 89.592 506.61 89.944 506.322 90.216C506.034 90.488 505.69 90.624 505.29 90.624ZM510.565 87.96L512.629 87.312V101.856C512.629 102.288 512.685 102.648 512.797 102.936C512.909 103.208 513.053 103.424 513.229 103.584C513.421 103.744 513.637 103.856 513.877 103.92C514.133 103.984 514.397 104.016 514.669 104.016C515.021 104.016 515.397 103.976 515.797 103.896V104.952C515.509 105.064 515.157 105.152 514.741 105.216C514.341 105.28 513.909 105.312 513.445 105.312C512.613 105.312 511.925 105.048 511.381 104.52C510.837 103.976 510.565 103.144 510.565 102.024V87.96ZM517.666 87.96L519.73 87.312V101.856C519.73 102.288 519.786 102.648 519.898 102.936C520.01 103.208 520.154 103.424 520.33 103.584C520.522 103.744 520.738 103.856 520.978 103.92C521.234 103.984 521.498 104.016 521.77 104.016C522.122 104.016 522.498 103.976 522.898 103.896V104.952C522.61 105.064 522.258 105.152 521.842 105.216C521.442 105.28 521.01 105.312 520.546 105.312C519.714 105.312 519.026 105.048 518.482 104.52C517.938 103.976 517.666 103.144 517.666 102.024V87.96ZM533.684 97.8C533.684 96.696 533.396 95.84 532.82 95.232C532.26 94.608 531.428 94.296 530.324 94.296C529.092 94.296 528.148 94.672 527.492 95.424C526.852 96.176 526.492 97.16 526.412 98.376L533.684 97.8ZM535.22 103.68C534.628 104.208 533.916 104.616 533.084 104.904C532.268 105.176 531.412 105.312 530.516 105.312C529.732 105.312 528.964 105.192 528.212 104.952C527.46 104.712 526.788 104.336 526.196 103.824C525.604 103.312 525.124 102.664 524.756 101.88C524.404 101.08 524.228 100.12 524.228 99C524.228 98.088 524.372 97.256 524.66 96.504C524.948 95.736 525.356 95.072 525.884 94.512C526.412 93.952 527.052 93.52 527.804 93.216C528.556 92.896 529.396 92.736 530.324 92.736C531.14 92.736 531.876 92.856 532.532 93.096C533.204 93.32 533.78 93.656 534.26 94.104C534.74 94.536 535.108 95.072 535.364 95.712C535.636 96.352 535.772 97.088 535.772 97.92C535.772 98.144 535.756 98.368 535.724 98.592C535.708 98.816 535.684 99.048 535.652 99.288H526.388C526.452 100.648 526.844 101.728 527.564 102.528C528.3 103.328 529.356 103.728 530.732 103.728C531.484 103.728 532.172 103.624 532.796 103.416C533.42 103.192 534.004 102.872 534.548 102.456L535.22 103.68ZM538.733 93.048H540.797V101.04C540.797 101.904 541.005 102.552 541.421 102.984C541.853 103.416 542.597 103.632 543.653 103.632C544.565 103.632 545.733 103.456 547.157 103.104V93.384L549.221 92.736V105.312L547.157 104.136C546.597 104.44 545.949 104.712 545.213 104.952C544.493 105.192 543.701 105.312 542.837 105.312C541.397 105.312 540.349 104.928 539.693 104.16C539.053 103.392 538.733 102.32 538.733 100.944V93.048ZM553.385 87.96L555.449 87.312V101.856C555.449 102.288 555.505 102.648 555.617 102.936C555.729 103.208 555.873 103.424 556.049 103.584C556.241 103.744 556.457 103.856 556.697 103.92C556.953 103.984 557.217 104.016 557.489 104.016C557.841 104.016 558.217 103.976 558.617 103.896V104.952C558.329 105.064 557.977 105.152 557.561 105.216C557.161 105.28 556.729 105.312 556.265 105.312C555.433 105.312 554.745 105.048 554.201 104.52C553.657 103.976 553.385 103.144 553.385 102.024V87.96Z" fill="white"/>
<path d="M362.202 129.706H370.212V131.074H363.84V135.286L368.646 134.71V136.15H363.84V140.614H370.356V142H362.202V129.706ZM372.638 132.802L374.186 133.684C374.642 133.456 375.152 133.252 375.716 133.072C376.292 132.892 376.922 132.802 377.606 132.802C378.686 132.802 379.466 133.09 379.946 133.666C380.438 134.242 380.684 135.046 380.684 136.078V142H379.136V136.006C379.136 135.358 378.974 134.872 378.65 134.548C378.338 134.224 377.786 134.062 376.994 134.062C376.61 134.062 376.19 134.098 375.734 134.17C375.29 134.242 374.774 134.344 374.186 134.476V142H372.638V132.802ZM388.107 132.802L389.655 133.288C390.039 133.12 390.423 133 390.807 132.928C391.191 132.844 391.611 132.802 392.067 132.802C392.715 132.802 393.315 132.898 393.867 133.09C394.431 133.282 394.923 133.57 395.343 133.954C395.763 134.326 396.093 134.8 396.333 135.376C396.573 135.94 396.693 136.594 396.693 137.338C396.693 138.142 396.567 138.85 396.315 139.462C396.063 140.074 395.721 140.584 395.289 140.992C394.869 141.4 394.371 141.712 393.795 141.928C393.231 142.132 392.625 142.234 391.977 142.234C391.533 142.234 391.113 142.198 390.717 142.126C390.321 142.054 389.967 141.958 389.655 141.838V145.528L388.107 146.14V132.802ZM389.655 140.596C389.979 140.716 390.321 140.812 390.681 140.884C391.041 140.956 391.413 140.992 391.797 140.992C392.829 140.992 393.633 140.692 394.209 140.092C394.785 139.492 395.073 138.622 395.073 137.482C395.073 136.27 394.743 135.364 394.083 134.764C393.423 134.152 392.499 133.846 391.311 133.846C391.071 133.846 390.807 133.858 390.519 133.882C390.231 133.894 389.943 133.924 389.655 133.972V140.596ZM399.023 129.22L400.571 128.734V139.642C400.571 139.966 400.613 140.236 400.697 140.452C400.781 140.656 400.889 140.818 401.021 140.938C401.165 141.058 401.327 141.142 401.507 141.19C401.699 141.238 401.897 141.262 402.101 141.262C402.365 141.262 402.647 141.232 402.947 141.172V141.964C402.731 142.048 402.467 142.114 402.155 142.162C401.855 142.21 401.531 142.234 401.183 142.234C400.559 142.234 400.043 142.036 399.635 141.64C399.227 141.232 399.023 140.608 399.023 139.768V129.22ZM404.223 133.036H405.771V139.03C405.771 139.678 405.927 140.164 406.239 140.488C406.563 140.812 407.121 140.974 407.913 140.974C408.597 140.974 409.473 140.842 410.541 140.578V133.288L412.089 132.802V142.234L410.541 141.352C410.121 141.58 409.635 141.784 409.083 141.964C408.543 142.144 407.949 142.234 407.301 142.234C406.221 142.234 405.435 141.946 404.943 141.37C404.463 140.794 404.223 139.99 404.223 138.958V133.036ZM414.816 140.83C415.188 140.902 415.62 140.974 416.112 141.046C416.616 141.118 417.138 141.154 417.678 141.154C418.026 141.154 418.356 141.124 418.668 141.064C418.98 141.004 419.25 140.914 419.478 140.794C419.718 140.662 419.904 140.506 420.036 140.326C420.168 140.134 420.234 139.906 420.234 139.642C420.234 139.426 420.162 139.24 420.018 139.084C419.874 138.916 419.682 138.772 419.442 138.652C419.202 138.52 418.926 138.406 418.614 138.31C418.302 138.202 417.984 138.1 417.66 138.004C417.3 137.896 416.94 137.77 416.58 137.626C416.22 137.482 415.896 137.308 415.608 137.104C415.32 136.9 415.086 136.66 414.906 136.384C414.738 136.108 414.654 135.772 414.654 135.376C414.654 134.62 414.966 134.002 415.59 133.522C416.214 133.042 417.078 132.802 418.182 132.802C418.866 132.802 419.466 132.844 419.982 132.928C420.51 133.012 420.966 133.156 421.35 133.36L420.81 134.512C420.486 134.356 420.126 134.23 419.73 134.134C419.346 134.026 418.872 133.972 418.308 133.972C417.588 133.972 417.054 134.098 416.706 134.35C416.37 134.602 416.202 134.92 416.202 135.304C416.202 135.556 416.292 135.772 416.472 135.952C416.652 136.12 416.886 136.27 417.174 136.402C417.462 136.522 417.786 136.636 418.146 136.744C418.518 136.84 418.89 136.948 419.262 137.068C419.586 137.176 419.892 137.296 420.18 137.428C420.48 137.56 420.744 137.722 420.972 137.914C421.2 138.106 421.38 138.334 421.512 138.598C421.656 138.85 421.728 139.156 421.728 139.516C421.728 139.948 421.632 140.332 421.44 140.668C421.26 141.004 421.002 141.292 420.666 141.532C420.342 141.76 419.946 141.934 419.478 142.054C419.01 142.174 418.5 142.234 417.948 142.234C417.612 142.234 417.276 142.216 416.94 142.18C416.616 142.156 416.304 142.12 416.004 142.072C415.704 142.024 415.428 141.976 415.176 141.928C414.936 141.868 414.738 141.808 414.582 141.748L414.816 140.83ZM434.589 141.622C434.265 141.802 433.899 141.946 433.491 142.054C433.083 142.174 432.651 142.234 432.195 142.234C431.559 142.234 430.965 142.132 430.413 141.928C429.861 141.724 429.375 141.424 428.955 141.028C428.547 140.632 428.223 140.14 427.983 139.552C427.743 138.964 427.623 138.28 427.623 137.5C427.623 136.732 427.743 136.054 427.983 135.466C428.223 134.878 428.547 134.386 428.955 133.99C429.375 133.594 429.861 133.3 430.413 133.108C430.965 132.904 431.559 132.802 432.195 132.802C432.651 132.802 433.065 132.844 433.437 132.928C433.821 133 434.205 133.114 434.589 133.27V129.22L436.137 128.734V142.234L434.589 141.622ZM434.589 134.08C434.301 134.032 434.013 134.002 433.725 133.99C433.449 133.966 433.191 133.954 432.951 133.954C431.775 133.954 430.863 134.242 430.215 134.818C429.567 135.382 429.243 136.264 429.243 137.464C429.243 138.604 429.525 139.492 430.089 140.128C430.653 140.752 431.445 141.064 432.465 141.064C432.849 141.064 433.221 141.028 433.581 140.956C433.941 140.884 434.277 140.788 434.589 140.668V134.08ZM439.01 133.036H440.558V139.03C440.558 139.678 440.714 140.164 441.026 140.488C441.35 140.812 441.908 140.974 442.7 140.974C443.384 140.974 444.26 140.842 445.328 140.578V133.288L446.876 132.802V142.234L445.328 141.352C444.908 141.58 444.422 141.784 443.87 141.964C443.33 142.144 442.736 142.234 442.088 142.234C441.008 142.234 440.222 141.946 439.73 141.37C439.25 140.794 439.01 139.99 439.01 138.958V133.036ZM454.412 132.802L455.96 133.288C456.344 133.12 456.728 133 457.112 132.928C457.496 132.844 457.916 132.802 458.372 132.802C459.02 132.802 459.62 132.898 460.172 133.09C460.736 133.282 461.228 133.57 461.648 133.954C462.068 134.326 462.398 134.8 462.638 135.376C462.878 135.94 462.998 136.594 462.998 137.338C462.998 138.142 462.872 138.85 462.62 139.462C462.368 140.074 462.026 140.584 461.594 140.992C461.174 141.4 460.676 141.712 460.1 141.928C459.536 142.132 458.93 142.234 458.282 142.234C457.838 142.234 457.418 142.198 457.022 142.126C456.626 142.054 456.272 141.958 455.96 141.838V145.528L454.412 146.14V132.802ZM455.96 140.596C456.284 140.716 456.626 140.812 456.986 140.884C457.346 140.956 457.718 140.992 458.102 140.992C459.134 140.992 459.938 140.692 460.514 140.092C461.09 139.492 461.378 138.622 461.378 137.482C461.378 136.27 461.048 135.364 460.388 134.764C459.728 134.152 458.804 133.846 457.616 133.846C457.376 133.846 457.112 133.858 456.824 133.882C456.536 133.894 456.248 133.924 455.96 133.972V140.596ZM465.38 132.802L466.928 133.684C467.276 133.408 467.684 133.192 468.152 133.036C468.62 132.88 469.136 132.802 469.7 132.802C469.916 132.802 470.144 132.82 470.384 132.856L470.096 134.494C469.772 134.434 469.412 134.392 469.016 134.368C468.62 134.344 468.242 134.332 467.882 134.332C467.69 134.332 467.51 134.332 467.342 134.332C467.186 134.332 467.048 134.338 466.928 134.35V142H465.38V132.802ZM475.878 142.234C475.11 142.234 474.432 142.108 473.844 141.856C473.268 141.604 472.782 141.262 472.386 140.83C472.002 140.398 471.708 139.9 471.504 139.336C471.312 138.76 471.216 138.154 471.216 137.518C471.216 136.894 471.312 136.3 471.504 135.736C471.708 135.16 472.002 134.656 472.386 134.224C472.782 133.792 473.268 133.45 473.844 133.198C474.432 132.934 475.11 132.802 475.878 132.802C476.646 132.802 477.318 132.934 477.894 133.198C478.482 133.45 478.968 133.792 479.352 134.224C479.748 134.656 480.042 135.16 480.234 135.736C480.438 136.3 480.54 136.894 480.54 137.518C480.54 138.154 480.438 138.76 480.234 139.336C480.042 139.9 479.748 140.398 479.352 140.83C478.968 141.262 478.482 141.604 477.894 141.856C477.318 142.108 476.646 142.234 475.878 142.234ZM475.878 141.028C476.37 141.028 476.802 140.944 477.174 140.776C477.558 140.596 477.876 140.356 478.128 140.056C478.392 139.744 478.59 139.378 478.722 138.958C478.854 138.526 478.92 138.052 478.92 137.536C478.92 137.02 478.854 136.546 478.722 136.114C478.59 135.682 478.392 135.31 478.128 134.998C477.876 134.686 477.558 134.446 477.174 134.278C476.802 134.098 476.37 134.008 475.878 134.008C475.386 134.008 474.948 134.098 474.564 134.278C474.192 134.446 473.874 134.686 473.61 134.998C473.358 135.31 473.166 135.682 473.034 136.114C472.902 136.546 472.836 137.02 472.836 137.536C472.836 138.052 472.902 138.526 473.034 138.958C473.166 139.378 473.358 139.744 473.61 140.056C473.874 140.356 474.192 140.596 474.564 140.776C474.948 140.944 475.386 141.028 475.878 141.028ZM483.119 144.34C483.539 144.532 483.983 144.682 484.451 144.79C484.919 144.898 485.483 144.952 486.143 144.952C487.055 144.952 487.793 144.724 488.357 144.268C488.933 143.824 489.221 143.134 489.221 142.198V141.622C488.897 141.802 488.531 141.946 488.123 142.054C487.715 142.174 487.283 142.234 486.827 142.234C486.191 142.234 485.597 142.132 485.045 141.928C484.493 141.724 484.007 141.418 483.587 141.01C483.179 140.602 482.855 140.098 482.615 139.498C482.375 138.898 482.255 138.208 482.255 137.428C482.255 136.66 482.375 135.988 482.615 135.412C482.855 134.824 483.179 134.338 483.587 133.954C484.007 133.57 484.493 133.282 485.045 133.09C485.597 132.898 486.191 132.802 486.827 132.802C487.283 132.802 487.703 132.844 488.087 132.928C488.471 133 488.855 133.12 489.239 133.288L490.769 132.802V141.91C490.769 142.642 490.649 143.272 490.409 143.8C490.169 144.328 489.851 144.766 489.455 145.114C489.059 145.462 488.603 145.72 488.087 145.888C487.583 146.056 487.055 146.14 486.503 146.14C485.675 146.14 484.949 146.038 484.325 145.834C483.713 145.63 483.191 145.354 482.759 145.006L483.119 144.34ZM489.221 134.08C488.933 134.032 488.645 134.002 488.357 133.99C488.081 133.966 487.823 133.954 487.583 133.954C486.407 133.954 485.495 134.23 484.847 134.782C484.199 135.322 483.875 136.192 483.875 137.392C483.875 138.532 484.157 139.426 484.721 140.074C485.285 140.722 486.077 141.046 487.097 141.046C487.529 141.046 487.913 141.022 488.249 140.974C488.585 140.914 488.909 140.824 489.221 140.704V134.08ZM493.769 132.802L495.317 133.684C495.665 133.408 496.073 133.192 496.541 133.036C497.009 132.88 497.525 132.802 498.089 132.802C498.305 132.802 498.533 132.82 498.773 132.856L498.485 134.494C498.161 134.434 497.801 134.392 497.405 134.368C497.009 134.344 496.631 134.332 496.271 134.332C496.079 134.332 495.899 134.332 495.731 134.332C495.575 134.332 495.437 134.338 495.317 134.35V142H493.769V132.802ZM505.728 141.37C505.404 141.61 504.99 141.814 504.486 141.982C503.994 142.15 503.46 142.234 502.884 142.234C502.284 142.234 501.774 142.156 501.354 142C500.946 141.832 500.604 141.616 500.328 141.352C500.064 141.088 499.872 140.788 499.752 140.452C499.632 140.116 499.572 139.768 499.572 139.408C499.572 139.012 499.638 138.628 499.77 138.256C499.902 137.872 500.088 137.548 500.328 137.284C500.736 137.236 501.174 137.194 501.642 137.158C502.11 137.122 502.578 137.092 503.046 137.068C503.526 137.044 503.994 137.032 504.45 137.032C504.906 137.02 505.332 137.014 505.728 137.014V135.862C505.728 135.214 505.548 134.746 505.188 134.458C504.84 134.158 504.348 134.008 503.712 134.008C503.208 134.008 502.692 134.098 502.164 134.278C501.648 134.458 501.198 134.68 500.814 134.944L500.112 133.954C500.652 133.582 501.204 133.3 501.768 133.108C502.344 132.904 502.998 132.802 503.73 132.802C504.858 132.802 505.728 133.054 506.34 133.558C506.964 134.05 507.276 134.836 507.276 135.916V142.234L505.728 141.37ZM505.728 137.68C505.308 137.728 504.918 137.776 504.558 137.824C504.198 137.872 503.844 137.92 503.496 137.968C503.16 138.004 502.824 138.052 502.488 138.112C502.152 138.16 501.798 138.214 501.426 138.274C501.27 138.55 501.192 138.856 501.192 139.192C501.192 139.432 501.228 139.666 501.3 139.894C501.372 140.11 501.48 140.308 501.624 140.488C501.78 140.656 501.978 140.794 502.218 140.902C502.458 141.01 502.746 141.064 503.082 141.064C503.574 141.064 504.06 141.01 504.54 140.902C505.02 140.782 505.416 140.656 505.728 140.524V137.68ZM510.275 132.802L511.805 133.684C512.225 133.456 512.699 133.252 513.227 133.072C513.767 132.892 514.361 132.802 515.009 132.802C516.029 132.802 516.767 133.114 517.223 133.738C517.715 133.498 518.255 133.282 518.843 133.09C519.443 132.898 520.115 132.802 520.859 132.802C521.927 132.802 522.695 133.096 523.163 133.684C523.643 134.26 523.883 135.058 523.883 136.078V142H522.335V136.006C522.335 135.358 522.185 134.872 521.885 134.548C521.585 134.224 521.039 134.062 520.247 134.062C519.863 134.062 519.461 134.092 519.041 134.152C518.621 134.2 518.135 134.284 517.583 134.404C517.763 134.872 517.853 135.43 517.853 136.078V142H516.305V136.006C516.305 135.358 516.167 134.872 515.891 134.548C515.615 134.224 515.117 134.062 514.397 134.062C514.037 134.062 513.653 134.098 513.245 134.17C512.849 134.242 512.375 134.344 511.823 134.476V142H510.275V132.802ZM526.886 132.802L528.416 133.684C528.836 133.456 529.31 133.252 529.838 133.072C530.378 132.892 530.972 132.802 531.62 132.802C532.64 132.802 533.378 133.114 533.834 133.738C534.326 133.498 534.866 133.282 535.454 133.09C536.054 132.898 536.726 132.802 537.47 132.802C538.538 132.802 539.306 133.096 539.774 133.684C540.254 134.26 540.494 135.058 540.494 136.078V142H538.946V136.006C538.946 135.358 538.796 134.872 538.496 134.548C538.196 134.224 537.65 134.062 536.858 134.062C536.474 134.062 536.072 134.092 535.652 134.152C535.232 134.2 534.746 134.284 534.194 134.404C534.374 134.872 534.464 135.43 534.464 136.078V142H532.916V136.006C532.916 135.358 532.778 134.872 532.502 134.548C532.226 134.224 531.728 134.062 531.008 134.062C530.648 134.062 530.264 134.098 529.856 134.17C529.46 134.242 528.986 134.344 528.434 134.476V142H526.886V132.802ZM549.834 136.6C549.834 135.772 549.618 135.13 549.186 134.674C548.766 134.206 548.142 133.972 547.314 133.972C546.39 133.972 545.682 134.254 545.19 134.818C544.71 135.382 544.44 136.12 544.38 137.032L549.834 136.6ZM550.986 141.01C550.542 141.406 550.008 141.712 549.384 141.928C548.772 142.132 548.13 142.234 547.458 142.234C546.87 142.234 546.294 142.144 545.73 141.964C545.166 141.784 544.662 141.502 544.218 141.118C543.774 140.734 543.414 140.248 543.138 139.66C542.874 139.06 542.742 138.34 542.742 137.5C542.742 136.816 542.85 136.192 543.066 135.628C543.282 135.052 543.588 134.554 543.984 134.134C544.38 133.714 544.86 133.39 545.424 133.162C545.988 132.922 546.618 132.802 547.314 132.802C547.926 132.802 548.478 132.892 548.97 133.072C549.474 133.24 549.906 133.492 550.266 133.828C550.626 134.152 550.902 134.554 551.094 135.034C551.298 135.514 551.4 136.066 551.4 136.69C551.4 136.858 551.388 137.026 551.364 137.194C551.352 137.362 551.334 137.536 551.31 137.716H544.362C544.41 138.736 544.704 139.546 545.244 140.146C545.796 140.746 546.588 141.046 547.62 141.046C548.184 141.046 548.7 140.968 549.168 140.812C549.636 140.644 550.074 140.404 550.482 140.092L550.986 141.01ZM564.368 141.622C564.044 141.802 563.678 141.946 563.27 142.054C562.862 142.174 562.43 142.234 561.974 142.234C561.338 142.234 560.744 142.132 560.192 141.928C559.64 141.724 559.154 141.424 558.734 141.028C558.326 140.632 558.002 140.14 557.762 139.552C557.522 138.964 557.402 138.28 557.402 137.5C557.402 136.732 557.522 136.054 557.762 135.466C558.002 134.878 558.326 134.386 558.734 133.99C559.154 133.594 559.64 133.3 560.192 133.108C560.744 132.904 561.338 132.802 561.974 132.802C562.43 132.802 562.844 132.844 563.216 132.928C563.6 133 563.984 133.114 564.368 133.27V129.22L565.916 128.734V142.234L564.368 141.622ZM564.368 134.08C564.08 134.032 563.792 134.002 563.504 133.99C563.228 133.966 562.97 133.954 562.73 133.954C561.554 133.954 560.642 134.242 559.994 134.818C559.346 135.382 559.022 136.264 559.022 137.464C559.022 138.604 559.304 139.492 559.868 140.128C560.432 140.752 561.224 141.064 562.244 141.064C562.628 141.064 563 141.028 563.36 140.956C563.72 140.884 564.056 140.788 564.368 140.668V134.08ZM575.252 136.6C575.252 135.772 575.036 135.13 574.604 134.674C574.184 134.206 573.56 133.972 572.732 133.972C571.808 133.972 571.1 134.254 570.608 134.818C570.128 135.382 569.858 136.12 569.798 137.032L575.252 136.6ZM576.404 141.01C575.96 141.406 575.426 141.712 574.802 141.928C574.19 142.132 573.548 142.234 572.876 142.234C572.288 142.234 571.712 142.144 571.148 141.964C570.584 141.784 570.08 141.502 569.636 141.118C569.192 140.734 568.832 140.248 568.556 139.66C568.292 139.06 568.16 138.34 568.16 137.5C568.16 136.816 568.268 136.192 568.484 135.628C568.7 135.052 569.006 134.554 569.402 134.134C569.798 133.714 570.278 133.39 570.842 133.162C571.406 132.922 572.036 132.802 572.732 132.802C573.344 132.802 573.896 132.892 574.388 133.072C574.892 133.24 575.324 133.492 575.684 133.828C576.044 134.152 576.32 134.554 576.512 135.034C576.716 135.514 576.818 136.066 576.818 136.69C576.818 136.858 576.806 137.026 576.782 137.194C576.77 137.362 576.752 137.536 576.728 137.716H569.78C569.828 138.736 570.122 139.546 570.662 140.146C571.214 140.746 572.006 141.046 573.038 141.046C573.602 141.046 574.118 140.968 574.586 140.812C575.054 140.644 575.492 140.404 575.9 140.092L576.404 141.01ZM377.551 156.17H375.949V155.432L377.551 155.27V153.614C377.551 152.678 377.779 151.928 378.235 151.364C378.703 150.788 379.429 150.5 380.413 150.5C380.725 150.5 381.019 150.536 381.295 150.608C381.583 150.668 381.829 150.728 382.033 150.788L381.835 151.634C381.703 151.61 381.547 151.592 381.367 151.58C381.199 151.568 380.989 151.562 380.737 151.562C380.233 151.562 379.831 151.724 379.531 152.048C379.243 152.372 379.099 152.81 379.099 153.362V155.234L384.733 154.802V164H383.185V156.17H379.099V164H377.551V156.17ZM383.905 153.218C383.605 153.218 383.347 153.116 383.131 152.912C382.915 152.708 382.807 152.444 382.807 152.12C382.807 151.808 382.915 151.55 383.131 151.346C383.347 151.142 383.605 151.04 383.905 151.04C384.205 151.04 384.463 151.142 384.679 151.346C384.895 151.55 385.003 151.808 385.003 152.12C385.003 152.444 384.895 152.708 384.679 152.912C384.463 153.116 384.205 153.218 383.905 153.218ZM394.071 163.622C393.747 163.802 393.381 163.946 392.973 164.054C392.565 164.174 392.133 164.234 391.677 164.234C391.041 164.234 390.447 164.132 389.895 163.928C389.343 163.724 388.857 163.424 388.437 163.028C388.029 162.632 387.705 162.14 387.465 161.552C387.225 160.964 387.105 160.28 387.105 159.5C387.105 158.732 387.225 158.054 387.465 157.466C387.705 156.878 388.029 156.386 388.437 155.99C388.857 155.594 389.343 155.3 389.895 155.108C390.447 154.904 391.041 154.802 391.677 154.802C392.133 154.802 392.547 154.844 392.919 154.928C393.303 155 393.687 155.114 394.071 155.27V151.22L395.619 150.734V164.234L394.071 163.622ZM394.071 156.08C393.783 156.032 393.495 156.002 393.207 155.99C392.931 155.966 392.673 155.954 392.433 155.954C391.257 155.954 390.345 156.242 389.697 156.818C389.049 157.382 388.725 158.264 388.725 159.464C388.725 160.604 389.007 161.492 389.571 162.128C390.135 162.752 390.927 163.064 391.947 163.064C392.331 163.064 392.703 163.028 393.063 162.956C393.423 162.884 393.759 162.788 394.071 162.668V156.08ZM404.955 158.6C404.955 157.772 404.739 157.13 404.307 156.674C403.887 156.206 403.263 155.972 402.435 155.972C401.511 155.972 400.803 156.254 400.311 156.818C399.831 157.382 399.561 158.12 399.501 159.032L404.955 158.6ZM406.107 163.01C405.663 163.406 405.129 163.712 404.505 163.928C403.893 164.132 403.251 164.234 402.579 164.234C401.991 164.234 401.415 164.144 400.851 163.964C400.287 163.784 399.783 163.502 399.339 163.118C398.895 162.734 398.535 162.248 398.259 161.66C397.995 161.06 397.863 160.34 397.863 159.5C397.863 158.816 397.971 158.192 398.187 157.628C398.403 157.052 398.709 156.554 399.105 156.134C399.501 155.714 399.981 155.39 400.545 155.162C401.109 154.922 401.739 154.802 402.435 154.802C403.047 154.802 403.599 154.892 404.091 155.072C404.595 155.24 405.027 155.492 405.387 155.828C405.747 156.152 406.023 156.554 406.215 157.034C406.419 157.514 406.521 158.066 406.521 158.69C406.521 158.858 406.509 159.026 406.485 159.194C406.473 159.362 406.455 159.536 406.431 159.716H399.483C399.531 160.736 399.825 161.546 400.365 162.146C400.917 162.746 401.709 163.046 402.741 163.046C403.305 163.046 403.821 162.968 404.289 162.812C404.757 162.644 405.195 162.404 405.603 162.092L406.107 163.01ZM403.443 150.5L404.649 151.67L400.905 154.064L400.311 153.47L403.443 150.5ZM408.867 151.22L410.415 150.734V161.642C410.415 161.966 410.457 162.236 410.541 162.452C410.625 162.656 410.733 162.818 410.865 162.938C411.009 163.058 411.171 163.142 411.351 163.19C411.543 163.238 411.741 163.262 411.945 163.262C412.209 163.262 412.491 163.232 412.791 163.172V163.964C412.575 164.048 412.311 164.114 411.999 164.162C411.699 164.21 411.375 164.234 411.027 164.234C410.403 164.234 409.887 164.036 409.479 163.64C409.071 163.232 408.867 162.608 408.867 161.768V151.22ZM415.319 153.218C415.031 153.218 414.785 153.122 414.581 152.93C414.377 152.738 414.275 152.486 414.275 152.174C414.275 151.862 414.377 151.61 414.581 151.418C414.785 151.226 415.031 151.13 415.319 151.13C415.619 151.13 415.871 151.226 416.075 151.418C416.279 151.61 416.381 151.862 416.381 152.174C416.381 152.486 416.279 152.738 416.075 152.93C415.871 153.122 415.619 153.218 415.319 153.218ZM414.545 155.288L416.093 154.802V164H414.545V155.288ZM418.824 162.83C419.196 162.902 419.628 162.974 420.12 163.046C420.624 163.118 421.146 163.154 421.686 163.154C422.034 163.154 422.364 163.124 422.676 163.064C422.988 163.004 423.258 162.914 423.486 162.794C423.726 162.662 423.912 162.506 424.044 162.326C424.176 162.134 424.242 161.906 424.242 161.642C424.242 161.426 424.17 161.24 424.026 161.084C423.882 160.916 423.69 160.772 423.45 160.652C423.21 160.52 422.934 160.406 422.622 160.31C422.31 160.202 421.992 160.1 421.668 160.004C421.308 159.896 420.948 159.77 420.588 159.626C420.228 159.482 419.904 159.308 419.616 159.104C419.328 158.9 419.094 158.66 418.914 158.384C418.746 158.108 418.662 157.772 418.662 157.376C418.662 156.62 418.974 156.002 419.598 155.522C420.222 155.042 421.086 154.802 422.19 154.802C422.874 154.802 423.474 154.844 423.99 154.928C424.518 155.012 424.974 155.156 425.358 155.36L424.818 156.512C424.494 156.356 424.134 156.23 423.738 156.134C423.354 156.026 422.88 155.972 422.316 155.972C421.596 155.972 421.062 156.098 420.714 156.35C420.378 156.602 420.21 156.92 420.21 157.304C420.21 157.556 420.3 157.772 420.48 157.952C420.66 158.12 420.894 158.27 421.182 158.402C421.47 158.522 421.794 158.636 422.154 158.744C422.526 158.84 422.898 158.948 423.27 159.068C423.594 159.176 423.9 159.296 424.188 159.428C424.488 159.56 424.752 159.722 424.98 159.914C425.208 160.106 425.388 160.334 425.52 160.598C425.664 160.85 425.736 161.156 425.736 161.516C425.736 161.948 425.64 162.332 425.448 162.668C425.268 163.004 425.01 163.292 424.674 163.532C424.35 163.76 423.954 163.934 423.486 164.054C423.018 164.174 422.508 164.234 421.956 164.234C421.62 164.234 421.284 164.216 420.948 164.18C420.624 164.156 420.312 164.12 420.012 164.072C419.712 164.024 419.436 163.976 419.184 163.928C418.944 163.868 418.746 163.808 418.59 163.748L418.824 162.83ZM433.464 163.37C433.14 163.61 432.726 163.814 432.222 163.982C431.73 164.15 431.196 164.234 430.62 164.234C430.02 164.234 429.51 164.156 429.09 164C428.682 163.832 428.34 163.616 428.064 163.352C427.8 163.088 427.608 162.788 427.488 162.452C427.368 162.116 427.308 161.768 427.308 161.408C427.308 161.012 427.374 160.628 427.506 160.256C427.638 159.872 427.824 159.548 428.064 159.284C428.472 159.236 428.91 159.194 429.378 159.158C429.846 159.122 430.314 159.092 430.782 159.068C431.262 159.044 431.73 159.032 432.186 159.032C432.642 159.02 433.068 159.014 433.464 159.014V157.862C433.464 157.214 433.284 156.746 432.924 156.458C432.576 156.158 432.084 156.008 431.448 156.008C430.944 156.008 430.428 156.098 429.9 156.278C429.384 156.458 428.934 156.68 428.55 156.944L427.848 155.954C428.388 155.582 428.94 155.3 429.504 155.108C430.08 154.904 430.734 154.802 431.466 154.802C432.594 154.802 433.464 155.054 434.076 155.558C434.7 156.05 435.012 156.836 435.012 157.916V164.234L433.464 163.37ZM433.464 159.68C433.044 159.728 432.654 159.776 432.294 159.824C431.934 159.872 431.58 159.92 431.232 159.968C430.896 160.004 430.56 160.052 430.224 160.112C429.888 160.16 429.534 160.214 429.162 160.274C429.006 160.55 428.928 160.856 428.928 161.192C428.928 161.432 428.964 161.666 429.036 161.894C429.108 162.11 429.216 162.308 429.36 162.488C429.516 162.656 429.714 162.794 429.954 162.902C430.194 163.01 430.482 163.064 430.818 163.064C431.31 163.064 431.796 163.01 432.276 162.902C432.756 162.782 433.152 162.656 433.464 162.524V159.68ZM438.407 156.17H436.805V155.432L438.407 155.27V152.678L439.955 152.192V155.198L442.979 154.82L442.799 156.17H439.955V161.84C439.955 162.224 440.075 162.53 440.315 162.758C440.567 162.974 440.885 163.082 441.269 163.082C441.689 163.082 442.043 163.058 442.331 163.01C442.631 162.962 442.871 162.908 443.051 162.848L443.267 163.694C442.943 163.826 442.571 163.946 442.151 164.054C441.743 164.174 441.311 164.234 440.855 164.234C440.099 164.234 439.499 164.054 439.055 163.694C438.623 163.334 438.407 162.794 438.407 162.074V156.17ZM445.781 153.218C445.493 153.218 445.247 153.122 445.043 152.93C444.839 152.738 444.737 152.486 444.737 152.174C444.737 151.862 444.839 151.61 445.043 151.418C445.247 151.226 445.493 151.13 445.781 151.13C446.081 151.13 446.333 151.226 446.537 151.418C446.741 151.61 446.843 151.862 446.843 152.174C446.843 152.486 446.741 152.738 446.537 152.93C446.333 153.122 446.081 153.218 445.781 153.218ZM445.007 155.288L446.555 154.802V164H445.007V155.288ZM453.589 164.234C452.821 164.234 452.143 164.108 451.555 163.856C450.979 163.604 450.493 163.262 450.097 162.83C449.713 162.398 449.419 161.9 449.215 161.336C449.023 160.76 448.927 160.154 448.927 159.518C448.927 158.894 449.023 158.3 449.215 157.736C449.419 157.16 449.713 156.656 450.097 156.224C450.493 155.792 450.979 155.45 451.555 155.198C452.143 154.934 452.821 154.802 453.589 154.802C454.357 154.802 455.029 154.934 455.605 155.198C456.193 155.45 456.679 155.792 457.063 156.224C457.459 156.656 457.753 157.16 457.945 157.736C458.149 158.3 458.251 158.894 458.251 159.518C458.251 160.154 458.149 160.76 457.945 161.336C457.753 161.9 457.459 162.398 457.063 162.83C456.679 163.262 456.193 163.604 455.605 163.856C455.029 164.108 454.357 164.234 453.589 164.234ZM453.589 163.028C454.081 163.028 454.513 162.944 454.885 162.776C455.269 162.596 455.587 162.356 455.839 162.056C456.103 161.744 456.301 161.378 456.433 160.958C456.565 160.526 456.631 160.052 456.631 159.536C456.631 159.02 456.565 158.546 456.433 158.114C456.301 157.682 456.103 157.31 455.839 156.998C455.587 156.686 455.269 156.446 454.885 156.278C454.513 156.098 454.081 156.008 453.589 156.008C453.097 156.008 452.659 156.098 452.275 156.278C451.903 156.446 451.585 156.686 451.321 156.998C451.069 157.31 450.877 157.682 450.745 158.114C450.613 158.546 450.547 159.02 450.547 159.536C450.547 160.052 450.613 160.526 450.745 160.958C450.877 161.378 451.069 161.744 451.321 162.056C451.585 162.356 451.903 162.596 452.275 162.776C452.659 162.944 453.097 163.028 453.589 163.028ZM460.634 154.802L462.182 155.684C462.638 155.456 463.148 155.252 463.712 155.072C464.288 154.892 464.918 154.802 465.602 154.802C466.682 154.802 467.462 155.09 467.942 155.666C468.434 156.242 468.68 157.046 468.68 158.078V164H467.132V158.006C467.132 157.358 466.97 156.872 466.646 156.548C466.334 156.224 465.782 156.062 464.99 156.062C464.606 156.062 464.186 156.098 463.73 156.17C463.286 156.242 462.77 156.344 462.182 156.476V164H460.634V154.802ZM483.213 163.298C482.769 163.598 482.295 163.832 481.791 164C481.299 164.156 480.693 164.234 479.973 164.234C479.253 164.234 478.605 164.12 478.029 163.892C477.465 163.652 476.979 163.322 476.571 162.902C476.175 162.482 475.869 161.984 475.653 161.408C475.449 160.832 475.347 160.202 475.347 159.518C475.347 158.774 475.467 158.108 475.707 157.52C475.947 156.932 476.277 156.44 476.697 156.044C477.129 155.636 477.639 155.33 478.227 155.126C478.815 154.91 479.463 154.802 480.171 154.802C481.431 154.802 482.403 155.03 483.087 155.486L482.403 156.62C481.875 156.26 481.083 156.08 480.027 156.08C479.007 156.08 478.239 156.392 477.723 157.016C477.219 157.628 476.967 158.462 476.967 159.518C476.967 160.034 477.045 160.514 477.201 160.958C477.357 161.402 477.579 161.786 477.867 162.11C478.155 162.434 478.503 162.686 478.911 162.866C479.319 163.046 479.775 163.136 480.279 163.136C480.795 163.136 481.263 163.076 481.683 162.956C482.103 162.824 482.505 162.656 482.889 162.452L483.213 163.298ZM485.226 151.22L486.774 150.734V161.642C486.774 161.966 486.816 162.236 486.9 162.452C486.984 162.656 487.092 162.818 487.224 162.938C487.368 163.058 487.53 163.142 487.71 163.19C487.902 163.238 488.1 163.262 488.304 163.262C488.568 163.262 488.85 163.232 489.15 163.172V163.964C488.934 164.048 488.67 164.114 488.358 164.162C488.058 164.21 487.734 164.234 487.386 164.234C486.762 164.234 486.246 164.036 485.838 163.64C485.43 163.232 485.226 162.608 485.226 161.768V151.22ZM496.57 163.37C496.246 163.61 495.832 163.814 495.328 163.982C494.836 164.15 494.302 164.234 493.726 164.234C493.126 164.234 492.616 164.156 492.196 164C491.788 163.832 491.446 163.616 491.17 163.352C490.906 163.088 490.714 162.788 490.594 162.452C490.474 162.116 490.414 161.768 490.414 161.408C490.414 161.012 490.48 160.628 490.612 160.256C490.744 159.872 490.93 159.548 491.17 159.284C491.578 159.236 492.016 159.194 492.484 159.158C492.952 159.122 493.42 159.092 493.888 159.068C494.368 159.044 494.836 159.032 495.292 159.032C495.748 159.02 496.174 159.014 496.57 159.014V157.862C496.57 157.214 496.39 156.746 496.03 156.458C495.682 156.158 495.19 156.008 494.554 156.008C494.05 156.008 493.534 156.098 493.006 156.278C492.49 156.458 492.04 156.68 491.656 156.944L490.954 155.954C491.494 155.582 492.046 155.3 492.61 155.108C493.186 154.904 493.84 154.802 494.572 154.802C495.7 154.802 496.57 155.054 497.182 155.558C497.806 156.05 498.118 156.836 498.118 157.916V164.234L496.57 163.37ZM496.57 159.68C496.15 159.728 495.76 159.776 495.4 159.824C495.04 159.872 494.686 159.92 494.338 159.968C494.002 160.004 493.666 160.052 493.33 160.112C492.994 160.16 492.64 160.214 492.268 160.274C492.112 160.55 492.034 160.856 492.034 161.192C492.034 161.432 492.07 161.666 492.142 161.894C492.214 162.11 492.322 162.308 492.466 162.488C492.622 162.656 492.82 162.794 493.06 162.902C493.3 163.01 493.588 163.064 493.924 163.064C494.416 163.064 494.902 163.01 495.382 162.902C495.862 162.782 496.258 162.656 496.57 162.524V159.68ZM500.721 162.83C501.093 162.902 501.525 162.974 502.017 163.046C502.521 163.118 503.043 163.154 503.583 163.154C503.931 163.154 504.261 163.124 504.573 163.064C504.885 163.004 505.155 162.914 505.383 162.794C505.623 162.662 505.809 162.506 505.941 162.326C506.073 162.134 506.139 161.906 506.139 161.642C506.139 161.426 506.067 161.24 505.923 161.084C505.779 160.916 505.587 160.772 505.347 160.652C505.107 160.52 504.831 160.406 504.519 160.31C504.207 160.202 503.889 160.1 503.565 160.004C503.205 159.896 502.845 159.77 502.485 159.626C502.125 159.482 501.801 159.308 501.513 159.104C501.225 158.9 500.991 158.66 500.811 158.384C500.643 158.108 500.559 157.772 500.559 157.376C500.559 156.62 500.871 156.002 501.495 155.522C502.119 155.042 502.983 154.802 504.087 154.802C504.771 154.802 505.371 154.844 505.887 154.928C506.415 155.012 506.871 155.156 507.255 155.36L506.715 156.512C506.391 156.356 506.031 156.23 505.635 156.134C505.251 156.026 504.777 155.972 504.213 155.972C503.493 155.972 502.959 156.098 502.611 156.35C502.275 156.602 502.107 156.92 502.107 157.304C502.107 157.556 502.197 157.772 502.377 157.952C502.557 158.12 502.791 158.27 503.079 158.402C503.367 158.522 503.691 158.636 504.051 158.744C504.423 158.84 504.795 158.948 505.167 159.068C505.491 159.176 505.797 159.296 506.085 159.428C506.385 159.56 506.649 159.722 506.877 159.914C507.105 160.106 507.285 160.334 507.417 160.598C507.561 160.85 507.633 161.156 507.633 161.516C507.633 161.948 507.537 162.332 507.345 162.668C507.165 163.004 506.907 163.292 506.571 163.532C506.247 163.76 505.851 163.934 505.383 164.054C504.915 164.174 504.405 164.234 503.853 164.234C503.517 164.234 503.181 164.216 502.845 164.18C502.521 164.156 502.209 164.12 501.909 164.072C501.609 164.024 501.333 163.976 501.081 163.928C500.841 163.868 500.643 163.808 500.487 163.748L500.721 162.83ZM509.475 162.83C509.847 162.902 510.279 162.974 510.771 163.046C511.275 163.118 511.797 163.154 512.337 163.154C512.685 163.154 513.015 163.124 513.327 163.064C513.639 163.004 513.909 162.914 514.137 162.794C514.377 162.662 514.563 162.506 514.695 162.326C514.827 162.134 514.893 161.906 514.893 161.642C514.893 161.426 514.821 161.24 514.677 161.084C514.533 160.916 514.341 160.772 514.101 160.652C513.861 160.52 513.585 160.406 513.273 160.31C512.961 160.202 512.643 160.1 512.319 160.004C511.959 159.896 511.599 159.77 511.239 159.626C510.879 159.482 510.555 159.308 510.267 159.104C509.979 158.9 509.745 158.66 509.565 158.384C509.397 158.108 509.313 157.772 509.313 157.376C509.313 156.62 509.625 156.002 510.249 155.522C510.873 155.042 511.737 154.802 512.841 154.802C513.525 154.802 514.125 154.844 514.641 154.928C515.169 155.012 515.625 155.156 516.009 155.36L515.469 156.512C515.145 156.356 514.785 156.23 514.389 156.134C514.005 156.026 513.531 155.972 512.967 155.972C512.247 155.972 511.713 156.098 511.365 156.35C511.029 156.602 510.861 156.92 510.861 157.304C510.861 157.556 510.951 157.772 511.131 157.952C511.311 158.12 511.545 158.27 511.833 158.402C512.121 158.522 512.445 158.636 512.805 158.744C513.177 158.84 513.549 158.948 513.921 159.068C514.245 159.176 514.551 159.296 514.839 159.428C515.139 159.56 515.403 159.722 515.631 159.914C515.859 160.106 516.039 160.334 516.171 160.598C516.315 160.85 516.387 161.156 516.387 161.516C516.387 161.948 516.291 162.332 516.099 162.668C515.919 163.004 515.661 163.292 515.325 163.532C515.001 163.76 514.605 163.934 514.137 164.054C513.669 164.174 513.159 164.234 512.607 164.234C512.271 164.234 511.935 164.216 511.599 164.18C511.275 164.156 510.963 164.12 510.663 164.072C510.363 164.024 510.087 163.976 509.835 163.928C509.595 163.868 509.397 163.808 509.241 163.748L509.475 162.83ZM519.399 153.218C519.111 153.218 518.865 153.122 518.661 152.93C518.457 152.738 518.355 152.486 518.355 152.174C518.355 151.862 518.457 151.61 518.661 151.418C518.865 151.226 519.111 151.13 519.399 151.13C519.699 151.13 519.951 151.226 520.155 151.418C520.359 151.61 520.461 151.862 520.461 152.174C520.461 152.486 520.359 152.738 520.155 152.93C519.951 153.122 519.699 153.218 519.399 153.218ZM518.625 155.288L520.173 154.802V164H518.625V155.288ZM529.582 163.838C529.258 163.97 528.886 164.066 528.466 164.126C528.058 164.198 527.626 164.234 527.17 164.234C526.522 164.234 525.916 164.138 525.352 163.946C524.8 163.742 524.314 163.442 523.894 163.046C523.474 162.65 523.144 162.158 522.904 161.57C522.664 160.982 522.544 160.298 522.544 159.518C522.544 158.738 522.664 158.054 522.904 157.466C523.144 156.878 523.474 156.386 523.894 155.99C524.314 155.594 524.8 155.3 525.352 155.108C525.916 154.904 526.522 154.802 527.17 154.802C527.626 154.802 528.046 154.844 528.43 154.928C528.814 155 529.198 155.12 529.582 155.288L531.13 154.802V167.636L529.582 168.14V163.838ZM529.582 155.99C529.294 155.942 529.006 155.912 528.718 155.9C528.43 155.888 528.166 155.882 527.926 155.882C526.738 155.882 525.814 156.182 525.154 156.782C524.494 157.37 524.164 158.27 524.164 159.482C524.164 160.622 524.452 161.504 525.028 162.128C525.604 162.752 526.408 163.064 527.44 163.064C527.872 163.064 528.256 163.034 528.592 162.974C528.94 162.914 529.27 162.83 529.582 162.722V155.99ZM534.143 155.036H535.691V161.03C535.691 161.678 535.847 162.164 536.159 162.488C536.483 162.812 537.041 162.974 537.833 162.974C538.517 162.974 539.393 162.842 540.461 162.578V155.288L542.009 154.802V164.234L540.461 163.352C540.041 163.58 539.555 163.784 539.003 163.964C538.463 164.144 537.869 164.234 537.221 164.234C536.141 164.234 535.355 163.946 534.863 163.37C534.383 162.794 534.143 161.99 534.143 160.958V155.036ZM551.468 158.6C551.468 157.772 551.252 157.13 550.82 156.674C550.4 156.206 549.776 155.972 548.948 155.972C548.024 155.972 547.316 156.254 546.824 156.818C546.344 157.382 546.074 158.12 546.014 159.032L551.468 158.6ZM552.62 163.01C552.176 163.406 551.642 163.712 551.018 163.928C550.406 164.132 549.764 164.234 549.092 164.234C548.504 164.234 547.928 164.144 547.364 163.964C546.8 163.784 546.296 163.502 545.852 163.118C545.408 162.734 545.048 162.248 544.772 161.66C544.508 161.06 544.376 160.34 544.376 159.5C544.376 158.816 544.484 158.192 544.7 157.628C544.916 157.052 545.222 156.554 545.618 156.134C546.014 155.714 546.494 155.39 547.058 155.162C547.622 154.922 548.252 154.802 548.948 154.802C549.56 154.802 550.112 154.892 550.604 155.072C551.108 155.24 551.54 155.492 551.9 155.828C552.26 156.152 552.536 156.554 552.728 157.034C552.932 157.514 553.034 158.066 553.034 158.69C553.034 158.858 553.022 159.026 552.998 159.194C552.986 159.362 552.968 159.536 552.944 159.716H545.996C546.044 160.736 546.338 161.546 546.878 162.146C547.43 162.746 548.222 163.046 549.254 163.046C549.818 163.046 550.334 162.968 550.802 162.812C551.27 162.644 551.708 162.404 552.116 162.092L552.62 163.01ZM559.361 151.706L561.215 151.436L560.711 160.742H559.865L559.361 151.706ZM559.199 163.154C559.199 162.83 559.307 162.572 559.523 162.38C559.739 162.176 559.997 162.074 560.297 162.074C560.597 162.074 560.855 162.176 561.071 162.38C561.287 162.572 561.395 162.83 561.395 163.154C561.395 163.478 561.287 163.742 561.071 163.946C560.855 164.138 560.597 164.234 560.297 164.234C559.997 164.234 559.739 164.138 559.523 163.946C559.307 163.742 559.199 163.478 559.199 163.154Z" fill="white"/>
<circle cx="125" cy="125" r="125" fill="#AD005E" fill-opacity="0.8"/>
<path d="M20.1706 101.232C20.8426 101.552 21.4826 101.776 22.0906 101.904C22.7146 102.032 23.3066 102.096 23.8666 102.096C24.2986 102.096 24.7066 102.056 25.0906 101.976C25.4746 101.88 25.8106 101.736 26.0986 101.544C26.3866 101.352 26.6106 101.112 26.7706 100.824C26.9466 100.536 27.0346 100.2 27.0346 99.816C27.0346 99.144 26.8266 98.64 26.4106 98.304C26.0106 97.968 25.4426 97.8 24.7066 97.8C24.1946 97.8 23.7706 97.864 23.4346 97.992L22.2346 96.384L26.2666 92.28H20.4106V89.16H29.4586L30.3706 91.344L26.1466 95.304C27.7946 95.432 29.0106 95.88 29.7946 96.648C30.5946 97.416 30.9946 98.48 30.9946 99.84C30.9946 100.672 30.8426 101.424 30.5386 102.096C30.2346 102.768 29.8026 103.344 29.2426 103.824C28.6826 104.304 28.0026 104.672 27.2026 104.928C26.4026 105.184 25.5066 105.312 24.5146 105.312C23.3306 105.312 22.3146 105.208 21.4666 105C20.6186 104.776 19.8106 104.456 19.0426 104.04L20.1706 101.232ZM39.0604 105.312C38.1644 105.312 37.3404 105.12 36.5884 104.736C35.8524 104.336 35.2124 103.776 34.6684 103.056C34.1404 102.32 33.7244 101.44 33.4204 100.416C33.1164 99.392 32.9644 98.248 32.9644 96.984C32.9644 95.72 33.1164 94.584 33.4204 93.576C33.7244 92.568 34.1404 91.72 34.6684 91.032C35.2124 90.328 35.8524 89.792 36.5884 89.424C37.3404 89.04 38.1644 88.848 39.0604 88.848C39.9404 88.848 40.7564 89.032 41.5084 89.4C42.2764 89.768 42.9324 90.304 43.4764 91.008C44.0204 91.696 44.4444 92.544 44.7484 93.552C45.0684 94.56 45.2284 95.704 45.2284 96.984C45.2284 98.264 45.0684 99.416 44.7484 100.44C44.4444 101.464 44.0204 102.336 43.4764 103.056C42.9324 103.776 42.2764 104.336 41.5084 104.736C40.7564 105.12 39.9404 105.312 39.0604 105.312ZM39.0604 102.144C39.7964 102.144 40.3244 101.696 40.6444 100.8C40.9804 99.904 41.1484 98.632 41.1484 96.984C41.1484 96.312 41.1084 95.672 41.0284 95.064C40.9484 94.456 40.8204 93.92 40.6444 93.456C40.4684 92.976 40.2444 92.6 39.9724 92.328C39.7164 92.04 39.4124 91.896 39.0604 91.896C38.6924 91.896 38.3804 92.04 38.1244 92.328C37.8844 92.6 37.6844 92.976 37.5244 93.456C37.3644 93.92 37.2444 94.464 37.1644 95.088C37.1004 95.696 37.0684 96.328 37.0684 96.984C37.0684 98.632 37.2444 99.904 37.5964 100.8C37.9644 101.696 38.4524 102.144 39.0604 102.144ZM46.8143 98.376L48.1343 98.28C48.0863 97.896 48.0623 97.544 48.0623 97.224C48.0623 97.112 48.0623 97.008 48.0623 96.912C48.0623 96.8 48.0703 96.68 48.0863 96.552H46.4303L46.9103 95.112L48.1823 94.968C48.7423 92.952 49.6303 91.432 50.8463 90.408C52.0623 89.368 53.6383 88.848 55.5743 88.848C57.1263 88.848 58.4303 89.232 59.4863 90L58.2383 92.304C57.8383 92.128 57.4703 92 57.1343 91.92C56.7983 91.84 56.3903 91.8 55.9103 91.8C54.8543 91.8 54.0063 92.072 53.3663 92.616C52.7263 93.16 52.2623 93.864 51.9743 94.728L57.4703 94.344L56.7263 96.552H51.7343C51.7343 96.776 51.7343 97.016 51.7343 97.272C51.7503 97.528 51.7743 97.792 51.8063 98.064L56.5343 97.68L55.7423 99.936H52.2143C52.5823 100.8 53.0783 101.44 53.7023 101.856C54.3263 102.272 55.1423 102.48 56.1503 102.48C56.5343 102.48 56.9183 102.44 57.3023 102.36C57.6863 102.28 58.1023 102.128 58.5503 101.904L59.3903 104.424C58.8303 104.728 58.2143 104.944 57.5423 105.072C56.8863 105.216 56.2383 105.288 55.5983 105.288C54.5583 105.288 53.6383 105.16 52.8383 104.904C52.0383 104.632 51.3423 104.264 50.7503 103.8C50.1583 103.32 49.6623 102.752 49.2623 102.096C48.8783 101.44 48.5903 100.72 48.3983 99.936H46.2623L46.8143 98.376ZM67.963 92.736L70.027 93.384C70.539 93.16 71.051 93 71.563 92.904C72.075 92.792 72.635 92.736 73.243 92.736C74.107 92.736 74.907 92.864 75.643 93.12C76.395 93.376 77.051 93.76 77.611 94.272C78.171 94.768 78.611 95.4 78.931 96.168C79.251 96.92 79.411 97.792 79.411 98.784C79.411 99.856 79.243 100.8 78.907 101.616C78.571 102.432 78.115 103.112 77.539 103.656C76.979 104.2 76.315 104.616 75.547 104.904C74.795 105.176 73.987 105.312 73.123 105.312C72.531 105.312 71.971 105.264 71.443 105.168C70.915 105.072 70.443 104.944 70.027 104.784V109.704L67.963 110.52V92.736ZM70.027 103.128C70.459 103.288 70.915 103.416 71.395 103.512C71.875 103.608 72.371 103.656 72.883 103.656C74.259 103.656 75.331 103.256 76.099 102.456C76.867 101.656 77.251 100.496 77.251 98.976C77.251 97.36 76.811 96.152 75.931 95.352C75.051 94.536 73.819 94.128 72.235 94.128C71.915 94.128 71.563 94.144 71.179 94.176C70.795 94.192 70.411 94.232 70.027 94.296V103.128ZM87.9132 105.312C86.8892 105.312 85.9852 105.144 85.2012 104.808C84.4332 104.472 83.7852 104.016 83.2572 103.44C82.7452 102.864 82.3532 102.2 82.0812 101.448C81.8252 100.68 81.6972 99.872 81.6972 99.024C81.6972 98.192 81.8252 97.4 82.0812 96.648C82.3532 95.88 82.7452 95.208 83.2572 94.632C83.7852 94.056 84.4332 93.6 85.2012 93.264C85.9852 92.912 86.8892 92.736 87.9132 92.736C88.9372 92.736 89.8332 92.912 90.6012 93.264C91.3852 93.6 92.0332 94.056 92.5452 94.632C93.0732 95.208 93.4652 95.88 93.7212 96.648C93.9932 97.4 94.1292 98.192 94.1292 99.024C94.1292 99.872 93.9932 100.68 93.7212 101.448C93.4652 102.2 93.0732 102.864 92.5452 103.44C92.0332 104.016 91.3852 104.472 90.6012 104.808C89.8332 105.144 88.9372 105.312 87.9132 105.312ZM87.9132 103.704C88.5692 103.704 89.1452 103.592 89.6412 103.368C90.1532 103.128 90.5772 102.808 90.9132 102.408C91.2652 101.992 91.5292 101.504 91.7052 100.944C91.8812 100.368 91.9692 99.736 91.9692 99.048C91.9692 98.36 91.8812 97.728 91.7052 97.152C91.5292 96.576 91.2652 96.08 90.9132 95.664C90.5772 95.248 90.1532 94.928 89.6412 94.704C89.1452 94.464 88.5692 94.344 87.9132 94.344C87.2572 94.344 86.6732 94.464 86.1612 94.704C85.6652 94.928 85.2412 95.248 84.8892 95.664C84.5532 96.08 84.2972 96.576 84.1212 97.152C83.9452 97.728 83.8572 98.36 83.8572 99.048C83.8572 99.736 83.9452 100.368 84.1212 100.944C84.2972 101.504 84.5532 101.992 84.8892 102.408C85.2412 102.808 85.6652 103.128 86.1612 103.368C86.6732 103.592 87.2572 103.704 87.9132 103.704ZM97.1388 93.048H99.2028V101.04C99.2028 101.904 99.4108 102.552 99.8268 102.984C100.259 103.416 101.003 103.632 102.059 103.632C102.971 103.632 104.139 103.456 105.563 103.104V93.384L107.627 92.736V105.312L105.563 104.136C105.003 104.44 104.355 104.712 103.619 104.952C102.899 105.192 102.107 105.312 101.243 105.312C99.8028 105.312 98.7548 104.928 98.0988 104.16C97.4588 103.392 97.1388 102.32 97.1388 100.944V93.048ZM111.791 92.736L113.855 93.912C114.319 93.544 114.863 93.256 115.487 93.048C116.111 92.84 116.799 92.736 117.551 92.736C117.839 92.736 118.143 92.76 118.463 92.808L118.079 94.992C117.647 94.912 117.167 94.856 116.639 94.824C116.111 94.792 115.607 94.776 115.127 94.776C114.871 94.776 114.631 94.776 114.407 94.776C114.199 94.776 114.015 94.784 113.855 94.8V105H111.791V92.736ZM125.877 87.96L127.941 87.312V101.856C127.941 102.288 127.997 102.648 128.109 102.936C128.221 103.208 128.365 103.424 128.541 103.584C128.733 103.744 128.949 103.856 129.189 103.92C129.445 103.984 129.709 104.016 129.981 104.016C130.333 104.016 130.709 103.976 131.109 103.896V104.952C130.821 105.064 130.469 105.152 130.053 105.216C129.653 105.28 129.221 105.312 128.757 105.312C127.925 105.312 127.237 105.048 126.693 104.52C126.149 103.976 125.877 103.144 125.877 102.024V87.96ZM141.895 97.8C141.895 96.696 141.607 95.84 141.031 95.232C140.471 94.608 139.639 94.296 138.535 94.296C137.303 94.296 136.359 94.672 135.703 95.424C135.063 96.176 134.703 97.16 134.623 98.376L141.895 97.8ZM143.431 103.68C142.839 104.208 142.127 104.616 141.295 104.904C140.479 105.176 139.623 105.312 138.727 105.312C137.943 105.312 137.175 105.192 136.423 104.952C135.671 104.712 134.999 104.336 134.407 103.824C133.815 103.312 133.335 102.664 132.967 101.88C132.615 101.08 132.439 100.12 132.439 99C132.439 98.088 132.583 97.256 132.871 96.504C133.159 95.736 133.567 95.072 134.095 94.512C134.623 93.952 135.263 93.52 136.015 93.216C136.767 92.896 137.607 92.736 138.535 92.736C139.351 92.736 140.087 92.856 140.743 93.096C141.415 93.32 141.991 93.656 142.471 94.104C142.951 94.536 143.319 95.072 143.575 95.712C143.847 96.352 143.983 97.088 143.983 97.92C143.983 98.144 143.967 98.368 143.935 98.592C143.919 98.816 143.895 99.048 143.863 99.288H134.599C134.663 100.648 135.055 101.728 135.775 102.528C136.511 103.328 137.567 103.728 138.943 103.728C139.695 103.728 140.383 103.624 141.007 103.416C141.631 103.192 142.215 102.872 142.759 102.456L143.431 103.68ZM152.994 92.736L155.058 93.384C155.57 93.16 156.082 93 156.594 92.904C157.106 92.792 157.666 92.736 158.274 92.736C159.138 92.736 159.938 92.864 160.674 93.12C161.426 93.376 162.082 93.76 162.642 94.272C163.202 94.768 163.642 95.4 163.962 96.168C164.282 96.92 164.442 97.792 164.442 98.784C164.442 99.856 164.274 100.8 163.938 101.616C163.602 102.432 163.146 103.112 162.57 103.656C162.01 104.2 161.346 104.616 160.578 104.904C159.826 105.176 159.018 105.312 158.154 105.312C157.562 105.312 157.002 105.264 156.474 105.168C155.946 105.072 155.474 104.944 155.058 104.784V109.704L152.994 110.52V92.736ZM155.058 103.128C155.49 103.288 155.946 103.416 156.426 103.512C156.906 103.608 157.402 103.656 157.914 103.656C159.29 103.656 160.362 103.256 161.13 102.456C161.898 101.656 162.282 100.496 162.282 98.976C162.282 97.36 161.842 96.152 160.962 95.352C160.082 94.536 158.85 94.128 157.266 94.128C156.946 94.128 156.594 94.144 156.21 94.176C155.826 94.192 155.442 94.232 155.058 94.296V103.128ZM174.939 104.16C174.507 104.48 173.955 104.752 173.283 104.976C172.627 105.2 171.915 105.312 171.147 105.312C170.347 105.312 169.667 105.208 169.107 105C168.563 104.776 168.107 104.488 167.739 104.136C167.387 103.784 167.131 103.384 166.971 102.936C166.811 102.488 166.731 102.024 166.731 101.544C166.731 101.016 166.819 100.504 166.995 100.008C167.171 99.496 167.419 99.064 167.739 98.712C168.283 98.648 168.867 98.592 169.491 98.544C170.115 98.496 170.739 98.456 171.363 98.424C172.003 98.392 172.627 98.376 173.235 98.376C173.843 98.36 174.411 98.352 174.939 98.352V96.816C174.939 95.952 174.699 95.328 174.219 94.944C173.755 94.544 173.099 94.344 172.251 94.344C171.579 94.344 170.891 94.464 170.187 94.704C169.499 94.944 168.899 95.24 168.387 95.592L167.451 94.272C168.171 93.776 168.907 93.4 169.659 93.144C170.427 92.872 171.299 92.736 172.275 92.736C173.779 92.736 174.939 93.072 175.755 93.744C176.587 94.4 177.003 95.448 177.003 96.888V105.312L174.939 104.16ZM174.939 99.24C174.379 99.304 173.859 99.368 173.379 99.432C172.899 99.496 172.427 99.56 171.963 99.624C171.515 99.672 171.067 99.736 170.619 99.816C170.171 99.88 169.699 99.952 169.203 100.032C168.995 100.4 168.891 100.808 168.891 101.256C168.891 101.576 168.939 101.888 169.035 102.192C169.131 102.48 169.275 102.744 169.467 102.984C169.675 103.208 169.939 103.392 170.259 103.536C170.579 103.68 170.963 103.752 171.411 103.752C172.067 103.752 172.715 103.68 173.355 103.536C173.995 103.376 174.523 103.208 174.939 103.032V99.24ZM181.002 92.736L183.066 93.912C183.53 93.544 184.074 93.256 184.698 93.048C185.322 92.84 186.01 92.736 186.762 92.736C187.05 92.736 187.354 92.76 187.674 92.808L187.29 94.992C186.858 94.912 186.378 94.856 185.85 94.824C185.322 94.792 184.818 94.776 184.338 94.776C184.082 94.776 183.842 94.776 183.618 94.776C183.41 94.776 183.226 94.784 183.066 94.8V105H181.002V92.736ZM189.674 92.736L191.738 93.912C192.202 93.544 192.746 93.256 193.37 93.048C193.994 92.84 194.682 92.736 195.434 92.736C195.722 92.736 196.026 92.76 196.346 92.808L195.962 94.992C195.53 94.912 195.05 94.856 194.522 94.824C193.994 94.792 193.49 94.776 193.01 94.776C192.754 94.776 192.514 94.776 192.29 94.776C192.082 94.776 191.898 94.784 191.738 94.8V105H189.674V92.736ZM205.619 104.16C205.187 104.48 204.635 104.752 203.963 104.976C203.307 105.2 202.595 105.312 201.827 105.312C201.027 105.312 200.347 105.208 199.787 105C199.243 104.776 198.787 104.488 198.419 104.136C198.067 103.784 197.811 103.384 197.651 102.936C197.491 102.488 197.411 102.024 197.411 101.544C197.411 101.016 197.499 100.504 197.675 100.008C197.851 99.496 198.099 99.064 198.419 98.712C198.963 98.648 199.547 98.592 200.171 98.544C200.795 98.496 201.419 98.456 202.043 98.424C202.683 98.392 203.307 98.376 203.915 98.376C204.523 98.36 205.091 98.352 205.619 98.352V96.816C205.619 95.952 205.379 95.328 204.899 94.944C204.435 94.544 203.779 94.344 202.931 94.344C202.259 94.344 201.571 94.464 200.867 94.704C200.179 94.944 199.579 95.24 199.067 95.592L198.131 94.272C198.851 93.776 199.587 93.4 200.339 93.144C201.107 92.872 201.979 92.736 202.955 92.736C204.459 92.736 205.619 93.072 206.435 93.744C207.267 94.4 207.683 95.448 207.683 96.888V105.312L205.619 104.16ZM205.619 99.24C205.059 99.304 204.539 99.368 204.059 99.432C203.579 99.496 203.107 99.56 202.643 99.624C202.195 99.672 201.747 99.736 201.299 99.816C200.851 99.88 200.379 99.952 199.883 100.032C199.675 100.4 199.571 100.808 199.571 101.256C199.571 101.576 199.619 101.888 199.715 102.192C199.811 102.48 199.955 102.744 200.147 102.984C200.355 103.208 200.619 103.392 200.939 103.536C201.259 103.68 201.643 103.752 202.091 103.752C202.747 103.752 203.395 103.68 204.035 103.536C204.675 103.376 205.203 103.208 205.619 103.032V99.24ZM212.714 90.624C212.33 90.624 212.002 90.496 211.73 90.24C211.458 89.984 211.322 89.648 211.322 89.232C211.322 88.816 211.458 88.48 211.73 88.224C212.002 87.968 212.33 87.84 212.714 87.84C213.114 87.84 213.45 87.968 213.722 88.224C213.994 88.48 214.13 88.816 214.13 89.232C214.13 89.648 213.994 89.984 213.722 90.24C213.45 90.496 213.114 90.624 212.714 90.624ZM211.682 93.384L213.746 92.736V105H211.682V93.384ZM217.916 92.736L219.98 93.912C220.588 93.608 221.268 93.336 222.02 93.096C222.788 92.856 223.628 92.736 224.54 92.736C225.98 92.736 227.02 93.12 227.66 93.888C228.316 94.656 228.644 95.728 228.644 97.104V105H226.58V97.008C226.58 96.144 226.364 95.496 225.932 95.064C225.516 94.632 224.78 94.416 223.724 94.416C223.212 94.416 222.652 94.464 222.044 94.56C221.452 94.656 220.764 94.792 219.98 94.968V105H217.916V92.736Z" fill="white"/>
<path d="M15.5568 129.706H17.1948V140.776L23.1528 140.326V142H15.5568V129.706ZM28.7562 142.234C27.9882 142.234 27.3102 142.108 26.7222 141.856C26.1462 141.604 25.6602 141.262 25.2642 140.83C24.8802 140.398 24.5862 139.9 24.3822 139.336C24.1902 138.76 24.0942 138.154 24.0942 137.518C24.0942 136.894 24.1902 136.3 24.3822 135.736C24.5862 135.16 24.8802 134.656 25.2642 134.224C25.6602 133.792 26.1462 133.45 26.7222 133.198C27.3102 132.934 27.9882 132.802 28.7562 132.802C29.5242 132.802 30.1962 132.934 30.7722 133.198C31.3602 133.45 31.8462 133.792 32.2302 134.224C32.6262 134.656 32.9202 135.16 33.1122 135.736C33.3162 136.3 33.4182 136.894 33.4182 137.518C33.4182 138.154 33.3162 138.76 33.1122 139.336C32.9202 139.9 32.6262 140.398 32.2302 140.83C31.8462 141.262 31.3602 141.604 30.7722 141.856C30.1962 142.108 29.5242 142.234 28.7562 142.234ZM28.7562 141.028C29.2482 141.028 29.6802 140.944 30.0522 140.776C30.4362 140.596 30.7542 140.356 31.0062 140.056C31.2702 139.744 31.4682 139.378 31.6002 138.958C31.7322 138.526 31.7982 138.052 31.7982 137.536C31.7982 137.02 31.7322 136.546 31.6002 136.114C31.4682 135.682 31.2702 135.31 31.0062 134.998C30.7542 134.686 30.4362 134.446 30.0522 134.278C29.6802 134.098 29.2482 134.008 28.7562 134.008C28.2642 134.008 27.8262 134.098 27.4422 134.278C27.0702 134.446 26.7522 134.686 26.4882 134.998C26.2362 135.31 26.0442 135.682 25.9122 136.114C25.7802 136.546 25.7142 137.02 25.7142 137.536C25.7142 138.052 25.7802 138.526 25.9122 138.958C26.0442 139.378 26.2362 139.744 26.4882 140.056C26.7522 140.356 27.0702 140.596 27.4422 140.776C27.8262 140.944 28.2642 141.028 28.7562 141.028ZM35.8014 132.802L37.3494 133.684C37.6974 133.408 38.1054 133.192 38.5734 133.036C39.0414 132.88 39.5574 132.802 40.1214 132.802C40.3374 132.802 40.5654 132.82 40.8054 132.856L40.5174 134.494C40.1934 134.434 39.8334 134.392 39.4374 134.368C39.0414 134.344 38.6634 134.332 38.3034 134.332C38.1114 134.332 37.9314 134.332 37.7634 134.332C37.6074 134.332 37.4694 134.338 37.3494 134.35V142H35.8014V132.802ZM41.9093 140.83C42.2813 140.902 42.7133 140.974 43.2053 141.046C43.7093 141.118 44.2313 141.154 44.7713 141.154C45.1193 141.154 45.4493 141.124 45.7613 141.064C46.0733 141.004 46.3433 140.914 46.5713 140.794C46.8113 140.662 46.9973 140.506 47.1293 140.326C47.2613 140.134 47.3273 139.906 47.3273 139.642C47.3273 139.426 47.2553 139.24 47.1113 139.084C46.9673 138.916 46.7753 138.772 46.5353 138.652C46.2953 138.52 46.0193 138.406 45.7073 138.31C45.3953 138.202 45.0773 138.1 44.7533 138.004C44.3933 137.896 44.0333 137.77 43.6733 137.626C43.3133 137.482 42.9893 137.308 42.7013 137.104C42.4133 136.9 42.1793 136.66 41.9993 136.384C41.8313 136.108 41.7473 135.772 41.7473 135.376C41.7473 134.62 42.0593 134.002 42.6833 133.522C43.3073 133.042 44.1713 132.802 45.2753 132.802C45.9593 132.802 46.5593 132.844 47.0753 132.928C47.6033 133.012 48.0593 133.156 48.4433 133.36L47.9033 134.512C47.5793 134.356 47.2193 134.23 46.8233 134.134C46.4393 134.026 45.9653 133.972 45.4013 133.972C44.6813 133.972 44.1473 134.098 43.7993 134.35C43.4633 134.602 43.2953 134.92 43.2953 135.304C43.2953 135.556 43.3853 135.772 43.5653 135.952C43.7453 136.12 43.9793 136.27 44.2673 136.402C44.5553 136.522 44.8793 136.636 45.2393 136.744C45.6113 136.84 45.9833 136.948 46.3553 137.068C46.6793 137.176 46.9853 137.296 47.2733 137.428C47.5733 137.56 47.8373 137.722 48.0653 137.914C48.2933 138.106 48.4733 138.334 48.6053 138.598C48.7493 138.85 48.8213 139.156 48.8213 139.516C48.8213 139.948 48.7253 140.332 48.5333 140.668C48.3533 141.004 48.0953 141.292 47.7593 141.532C47.4353 141.76 47.0393 141.934 46.5713 142.054C46.1033 142.174 45.5933 142.234 45.0413 142.234C44.7053 142.234 44.3693 142.216 44.0333 142.18C43.7093 142.156 43.3973 142.12 43.0973 142.072C42.7973 142.024 42.5213 141.976 42.2693 141.928C42.0293 141.868 41.8313 141.808 41.6753 141.748L41.9093 140.83ZM57.3412 141.838C57.0172 141.97 56.6452 142.066 56.2252 142.126C55.8172 142.198 55.3852 142.234 54.9292 142.234C54.2812 142.234 53.6752 142.138 53.1112 141.946C52.5592 141.742 52.0732 141.442 51.6532 141.046C51.2332 140.65 50.9032 140.158 50.6632 139.57C50.4232 138.982 50.3032 138.298 50.3032 137.518C50.3032 136.738 50.4232 136.054 50.6632 135.466C50.9032 134.878 51.2332 134.386 51.6532 133.99C52.0732 133.594 52.5592 133.3 53.1112 133.108C53.6752 132.904 54.2812 132.802 54.9292 132.802C55.3852 132.802 55.8052 132.844 56.1892 132.928C56.5732 133 56.9572 133.12 57.3412 133.288L58.8892 132.802V145.636L57.3412 146.14V141.838ZM57.3412 133.99C57.0532 133.942 56.7652 133.912 56.4772 133.9C56.1892 133.888 55.9252 133.882 55.6852 133.882C54.4972 133.882 53.5732 134.182 52.9132 134.782C52.2532 135.37 51.9232 136.27 51.9232 137.482C51.9232 138.622 52.2112 139.504 52.7872 140.128C53.3632 140.752 54.1672 141.064 55.1992 141.064C55.6312 141.064 56.0152 141.034 56.3512 140.974C56.6992 140.914 57.0292 140.83 57.3412 140.722V133.99ZM61.9019 133.036H63.4499V139.03C63.4499 139.678 63.6059 140.164 63.9179 140.488C64.2419 140.812 64.7999 140.974 65.5919 140.974C66.2759 140.974 67.1519 140.842 68.2199 140.578V133.288L69.7679 132.802V142.234L68.2199 141.352C67.7999 141.58 67.3139 141.784 66.7619 141.964C66.2219 142.144 65.6279 142.234 64.9799 142.234C63.8999 142.234 63.1139 141.946 62.6219 141.37C62.1419 140.794 61.9019 139.99 61.9019 138.958V133.036ZM79.2272 136.6C79.2272 135.772 79.0112 135.13 78.5792 134.674C78.1592 134.206 77.5352 133.972 76.7072 133.972C75.7832 133.972 75.0752 134.254 74.5832 134.818C74.1032 135.382 73.8332 136.12 73.7732 137.032L79.2272 136.6ZM80.3792 141.01C79.9352 141.406 79.4012 141.712 78.7772 141.928C78.1652 142.132 77.5232 142.234 76.8512 142.234C76.2632 142.234 75.6872 142.144 75.1232 141.964C74.5592 141.784 74.0552 141.502 73.6112 141.118C73.1672 140.734 72.8072 140.248 72.5312 139.66C72.2672 139.06 72.1352 138.34 72.1352 137.5C72.1352 136.816 72.2432 136.192 72.4592 135.628C72.6752 135.052 72.9812 134.554 73.3772 134.134C73.7732 133.714 74.2532 133.39 74.8172 133.162C75.3812 132.922 76.0112 132.802 76.7072 132.802C77.3192 132.802 77.8712 132.892 78.3632 133.072C78.8672 133.24 79.2992 133.492 79.6592 133.828C80.0192 134.152 80.2952 134.554 80.4872 135.034C80.6912 135.514 80.7932 136.066 80.7932 136.69C80.7932 136.858 80.7812 137.026 80.7572 137.194C80.7452 137.362 80.7272 137.536 80.7032 137.716H73.7552C73.8032 138.736 74.0972 139.546 74.6372 140.146C75.1892 140.746 75.9812 141.046 77.0132 141.046C77.5772 141.046 78.0932 140.968 78.5612 140.812C79.0292 140.644 79.4672 140.404 79.8752 140.092L80.3792 141.01ZM87.5514 129.22L89.0994 128.734V139.642C89.0994 139.966 89.1414 140.236 89.2254 140.452C89.3094 140.656 89.4174 140.818 89.5494 140.938C89.6934 141.058 89.8554 141.142 90.0354 141.19C90.2274 141.238 90.4254 141.262 90.6294 141.262C90.8934 141.262 91.1754 141.232 91.4754 141.172V141.964C91.2594 142.048 90.9954 142.114 90.6834 142.162C90.3834 142.21 90.0594 142.234 89.7114 142.234C89.0874 142.234 88.5714 142.036 88.1634 141.64C87.7554 141.232 87.5514 140.608 87.5514 139.768V129.22ZM99.5651 136.6C99.5651 135.772 99.3491 135.13 98.9171 134.674C98.4971 134.206 97.8731 133.972 97.0451 133.972C96.1211 133.972 95.4131 134.254 94.9211 134.818C94.4411 135.382 94.1711 136.12 94.1111 137.032L99.5651 136.6ZM100.717 141.01C100.273 141.406 99.7391 141.712 99.1151 141.928C98.5031 142.132 97.8611 142.234 97.1891 142.234C96.6011 142.234 96.0251 142.144 95.4611 141.964C94.8971 141.784 94.3931 141.502 93.9491 141.118C93.5051 140.734 93.1451 140.248 92.8691 139.66C92.6051 139.06 92.4731 138.34 92.4731 137.5C92.4731 136.816 92.5811 136.192 92.7971 135.628C93.0131 135.052 93.3191 134.554 93.7151 134.134C94.1111 133.714 94.5911 133.39 95.1551 133.162C95.7191 132.922 96.3491 132.802 97.0451 132.802C97.6571 132.802 98.2091 132.892 98.7011 133.072C99.2051 133.24 99.6371 133.492 99.9971 133.828C100.357 134.152 100.633 134.554 100.825 135.034C101.029 135.514 101.131 136.066 101.131 136.69C101.131 136.858 101.119 137.026 101.095 137.194C101.083 137.362 101.065 137.536 101.041 137.716H94.0931C94.1411 138.736 94.4351 139.546 94.9751 140.146C95.5271 140.746 96.3191 141.046 97.3511 141.046C97.9151 141.046 98.4311 140.968 98.8991 140.812C99.3671 140.644 99.8051 140.404 100.213 140.092L100.717 141.01ZM108.249 134.17H106.647V133.432L108.249 133.27V131.614C108.249 130.678 108.477 129.928 108.933 129.364C109.401 128.788 110.127 128.5 111.111 128.5C111.423 128.5 111.717 128.536 111.993 128.608C112.281 128.668 112.527 128.728 112.731 128.788L112.533 129.634C112.401 129.61 112.245 129.592 112.065 129.58C111.897 129.568 111.687 129.562 111.435 129.562C110.931 129.562 110.529 129.724 110.229 130.048C109.941 130.372 109.797 130.81 109.797 131.362V133.234L115.431 132.802V142H113.883V134.17H109.797V142H108.249V134.17ZM114.603 131.218C114.303 131.218 114.045 131.116 113.829 130.912C113.613 130.708 113.505 130.444 113.505 130.12C113.505 129.808 113.613 129.55 113.829 129.346C114.045 129.142 114.303 129.04 114.603 129.04C114.903 129.04 115.161 129.142 115.377 129.346C115.593 129.55 115.701 129.808 115.701 130.12C115.701 130.444 115.593 130.708 115.377 130.912C115.161 131.116 114.903 131.218 114.603 131.218ZM118.559 129.22L120.107 128.734V139.642C120.107 139.966 120.149 140.236 120.233 140.452C120.317 140.656 120.425 140.818 120.557 140.938C120.701 141.058 120.863 141.142 121.043 141.19C121.235 141.238 121.433 141.262 121.637 141.262C121.901 141.262 122.183 141.232 122.483 141.172V141.964C122.267 142.048 122.003 142.114 121.691 142.162C121.391 142.21 121.067 142.234 120.719 142.234C120.095 142.234 119.579 142.036 119.171 141.64C118.763 141.232 118.559 140.608 118.559 139.768V129.22ZM123.885 129.22L125.433 128.734V139.642C125.433 139.966 125.475 140.236 125.559 140.452C125.643 140.656 125.751 140.818 125.883 140.938C126.027 141.058 126.189 141.142 126.369 141.19C126.561 141.238 126.759 141.262 126.963 141.262C127.227 141.262 127.509 141.232 127.809 141.172V141.964C127.593 142.048 127.329 142.114 127.017 142.162C126.717 142.21 126.393 142.234 126.045 142.234C125.421 142.234 124.905 142.036 124.497 141.64C124.089 141.232 123.885 140.608 123.885 139.768V129.22ZM135.899 136.6C135.899 135.772 135.683 135.13 135.251 134.674C134.831 134.206 134.207 133.972 133.379 133.972C132.455 133.972 131.747 134.254 131.255 134.818C130.775 135.382 130.505 136.12 130.445 137.032L135.899 136.6ZM137.051 141.01C136.607 141.406 136.073 141.712 135.449 141.928C134.837 142.132 134.195 142.234 133.523 142.234C132.935 142.234 132.359 142.144 131.795 141.964C131.231 141.784 130.727 141.502 130.283 141.118C129.839 140.734 129.479 140.248 129.203 139.66C128.939 139.06 128.807 138.34 128.807 137.5C128.807 136.816 128.915 136.192 129.131 135.628C129.347 135.052 129.653 134.554 130.049 134.134C130.445 133.714 130.925 133.39 131.489 133.162C132.053 132.922 132.683 132.802 133.379 132.802C133.991 132.802 134.543 132.892 135.035 133.072C135.539 133.24 135.971 133.492 136.331 133.828C136.691 134.152 136.967 134.554 137.159 135.034C137.363 135.514 137.465 136.066 137.465 136.69C137.465 136.858 137.453 137.026 137.429 137.194C137.417 137.362 137.399 137.536 137.375 137.716H130.427C130.475 138.736 130.769 139.546 131.309 140.146C131.861 140.746 132.653 141.046 133.685 141.046C134.249 141.046 134.765 140.968 135.233 140.812C135.701 140.644 136.139 140.404 136.547 140.092L137.051 141.01ZM139.685 133.036H141.233V139.03C141.233 139.678 141.389 140.164 141.701 140.488C142.025 140.812 142.583 140.974 143.375 140.974C144.059 140.974 144.935 140.842 146.003 140.578V133.288L147.551 132.802V142.234L146.003 141.352C145.583 141.58 145.097 141.784 144.545 141.964C144.005 142.144 143.411 142.234 142.763 142.234C141.683 142.234 140.897 141.946 140.405 141.37C139.925 140.794 139.685 139.99 139.685 138.958V133.036ZM150.674 129.22L152.222 128.734V139.642C152.222 139.966 152.264 140.236 152.348 140.452C152.432 140.656 152.54 140.818 152.672 140.938C152.816 141.058 152.978 141.142 153.158 141.19C153.35 141.238 153.548 141.262 153.752 141.262C154.016 141.262 154.298 141.232 154.598 141.172V141.964C154.382 142.048 154.118 142.114 153.806 142.162C153.506 142.21 153.182 142.234 152.834 142.234C152.21 142.234 151.694 142.036 151.286 141.64C150.878 141.232 150.674 140.608 150.674 139.768V129.22ZM166.254 141.37C165.93 141.61 165.516 141.814 165.012 141.982C164.52 142.15 163.986 142.234 163.41 142.234C162.81 142.234 162.3 142.156 161.88 142C161.472 141.832 161.13 141.616 160.854 141.352C160.59 141.088 160.398 140.788 160.278 140.452C160.158 140.116 160.098 139.768 160.098 139.408C160.098 139.012 160.164 138.628 160.296 138.256C160.428 137.872 160.614 137.548 160.854 137.284C161.262 137.236 161.7 137.194 162.168 137.158C162.636 137.122 163.104 137.092 163.572 137.068C164.052 137.044 164.52 137.032 164.976 137.032C165.432 137.02 165.858 137.014 166.254 137.014V135.862C166.254 135.214 166.074 134.746 165.714 134.458C165.366 134.158 164.874 134.008 164.238 134.008C163.734 134.008 163.218 134.098 162.69 134.278C162.174 134.458 161.724 134.68 161.34 134.944L160.638 133.954C161.178 133.582 161.73 133.3 162.294 133.108C162.87 132.904 163.524 132.802 164.256 132.802C165.384 132.802 166.254 133.054 166.866 133.558C167.49 134.05 167.802 134.836 167.802 135.916V142.234L166.254 141.37ZM166.254 137.68C165.834 137.728 165.444 137.776 165.084 137.824C164.724 137.872 164.37 137.92 164.022 137.968C163.686 138.004 163.35 138.052 163.014 138.112C162.678 138.16 162.324 138.214 161.952 138.274C161.796 138.55 161.718 138.856 161.718 139.192C161.718 139.432 161.754 139.666 161.826 139.894C161.898 140.11 162.006 140.308 162.15 140.488C162.306 140.656 162.504 140.794 162.744 140.902C162.984 141.01 163.272 141.064 163.608 141.064C164.1 141.064 164.586 141.01 165.066 140.902C165.546 140.782 165.942 140.656 166.254 140.524V137.68ZM175.987 131.218C175.699 131.218 175.453 131.122 175.249 130.93C175.045 130.738 174.943 130.486 174.943 130.174C174.943 129.862 175.045 129.61 175.249 129.418C175.453 129.226 175.699 129.13 175.987 129.13C176.287 129.13 176.539 129.226 176.743 129.418C176.947 129.61 177.049 129.862 177.049 130.174C177.049 130.486 176.947 130.738 176.743 130.93C176.539 131.122 176.287 131.218 175.987 131.218ZM175.213 133.288L176.761 132.802V142H175.213V133.288ZM179.889 132.802L181.437 133.684C181.893 133.456 182.403 133.252 182.967 133.072C183.543 132.892 184.173 132.802 184.857 132.802C185.937 132.802 186.717 133.09 187.197 133.666C187.689 134.242 187.935 135.046 187.935 136.078V142H186.387V136.006C186.387 135.358 186.225 134.872 185.901 134.548C185.589 134.224 185.037 134.062 184.245 134.062C183.861 134.062 183.441 134.098 182.985 134.17C182.541 134.242 182.025 134.344 181.437 134.476V142H179.889V132.802ZM190.55 140.83C190.922 140.902 191.354 140.974 191.846 141.046C192.35 141.118 192.872 141.154 193.412 141.154C193.76 141.154 194.09 141.124 194.402 141.064C194.714 141.004 194.984 140.914 195.212 140.794C195.452 140.662 195.638 140.506 195.77 140.326C195.902 140.134 195.968 139.906 195.968 139.642C195.968 139.426 195.896 139.24 195.752 139.084C195.608 138.916 195.416 138.772 195.176 138.652C194.936 138.52 194.66 138.406 194.348 138.31C194.036 138.202 193.718 138.1 193.394 138.004C193.034 137.896 192.674 137.77 192.314 137.626C191.954 137.482 191.63 137.308 191.342 137.104C191.054 136.9 190.82 136.66 190.64 136.384C190.472 136.108 190.388 135.772 190.388 135.376C190.388 134.62 190.7 134.002 191.324 133.522C191.948 133.042 192.812 132.802 193.916 132.802C194.6 132.802 195.2 132.844 195.716 132.928C196.244 133.012 196.7 133.156 197.084 133.36L196.544 134.512C196.22 134.356 195.86 134.23 195.464 134.134C195.08 134.026 194.606 133.972 194.042 133.972C193.322 133.972 192.788 134.098 192.44 134.35C192.104 134.602 191.936 134.92 191.936 135.304C191.936 135.556 192.026 135.772 192.206 135.952C192.386 136.12 192.62 136.27 192.908 136.402C193.196 136.522 193.52 136.636 193.88 136.744C194.252 136.84 194.624 136.948 194.996 137.068C195.32 137.176 195.626 137.296 195.914 137.428C196.214 137.56 196.478 137.722 196.706 137.914C196.934 138.106 197.114 138.334 197.246 138.598C197.39 138.85 197.462 139.156 197.462 139.516C197.462 139.948 197.366 140.332 197.174 140.668C196.994 141.004 196.736 141.292 196.4 141.532C196.076 141.76 195.68 141.934 195.212 142.054C194.744 142.174 194.234 142.234 193.682 142.234C193.346 142.234 193.01 142.216 192.674 142.18C192.35 142.156 192.038 142.12 191.738 142.072C191.438 142.024 191.162 141.976 190.91 141.928C190.67 141.868 190.472 141.808 190.316 141.748L190.55 140.83ZM200.096 134.17H198.494V133.432L200.096 133.27V130.678L201.644 130.192V133.198L204.668 132.82L204.488 134.17H201.644V139.84C201.644 140.224 201.764 140.53 202.004 140.758C202.256 140.974 202.574 141.082 202.958 141.082C203.378 141.082 203.732 141.058 204.02 141.01C204.32 140.962 204.56 140.908 204.74 140.848L204.956 141.694C204.632 141.826 204.26 141.946 203.84 142.054C203.432 142.174 203 142.234 202.544 142.234C201.788 142.234 201.188 142.054 200.744 141.694C200.312 141.334 200.096 140.794 200.096 140.074V134.17ZM212.186 141.37C211.862 141.61 211.448 141.814 210.944 141.982C210.452 142.15 209.918 142.234 209.342 142.234C208.742 142.234 208.232 142.156 207.812 142C207.404 141.832 207.062 141.616 206.786 141.352C206.522 141.088 206.33 140.788 206.21 140.452C206.09 140.116 206.03 139.768 206.03 139.408C206.03 139.012 206.096 138.628 206.228 138.256C206.36 137.872 206.546 137.548 206.786 137.284C207.194 137.236 207.632 137.194 208.1 137.158C208.568 137.122 209.036 137.092 209.504 137.068C209.984 137.044 210.452 137.032 210.908 137.032C211.364 137.02 211.79 137.014 212.186 137.014V135.862C212.186 135.214 212.006 134.746 211.646 134.458C211.298 134.158 210.806 134.008 210.17 134.008C209.666 134.008 209.15 134.098 208.622 134.278C208.106 134.458 207.656 134.68 207.272 134.944L206.57 133.954C207.11 133.582 207.662 133.3 208.226 133.108C208.802 132.904 209.456 132.802 210.188 132.802C211.316 132.802 212.186 133.054 212.798 133.558C213.422 134.05 213.734 134.836 213.734 135.916V142.234L212.186 141.37ZM212.186 137.68C211.766 137.728 211.376 137.776 211.016 137.824C210.656 137.872 210.302 137.92 209.954 137.968C209.618 138.004 209.282 138.052 208.946 138.112C208.61 138.16 208.256 138.214 207.884 138.274C207.728 138.55 207.65 138.856 207.65 139.192C207.65 139.432 207.686 139.666 207.758 139.894C207.83 140.11 207.938 140.308 208.082 140.488C208.238 140.656 208.436 140.794 208.676 140.902C208.916 141.01 209.204 141.064 209.54 141.064C210.032 141.064 210.518 141.01 210.998 140.902C211.478 140.782 211.874 140.656 212.186 140.524V137.68ZM216.557 129.22L218.105 128.734V139.642C218.105 139.966 218.147 140.236 218.231 140.452C218.315 140.656 218.423 140.818 218.555 140.938C218.699 141.058 218.861 141.142 219.041 141.19C219.233 141.238 219.431 141.262 219.635 141.262C219.899 141.262 220.181 141.232 220.481 141.172V141.964C220.265 142.048 220.001 142.114 219.689 142.162C219.389 142.21 219.065 142.234 218.717 142.234C218.093 142.234 217.577 142.036 217.169 141.64C216.761 141.232 216.557 140.608 216.557 139.768V129.22ZM221.883 129.22L223.431 128.734V139.642C223.431 139.966 223.473 140.236 223.557 140.452C223.641 140.656 223.749 140.818 223.881 140.938C224.025 141.058 224.187 141.142 224.367 141.19C224.559 141.238 224.757 141.262 224.961 141.262C225.225 141.262 225.507 141.232 225.807 141.172V141.964C225.591 142.048 225.327 142.114 225.015 142.162C224.715 142.21 224.391 142.234 224.043 142.234C223.419 142.234 222.903 142.036 222.495 141.64C222.087 141.232 221.883 140.608 221.883 139.768V129.22ZM233.897 136.6C233.897 135.772 233.681 135.13 233.249 134.674C232.829 134.206 232.205 133.972 231.377 133.972C230.453 133.972 229.745 134.254 229.253 134.818C228.773 135.382 228.503 136.12 228.443 137.032L233.897 136.6ZM235.049 141.01C234.605 141.406 234.071 141.712 233.447 141.928C232.835 142.132 232.193 142.234 231.521 142.234C230.933 142.234 230.357 142.144 229.793 141.964C229.229 141.784 228.725 141.502 228.281 141.118C227.837 140.734 227.477 140.248 227.201 139.66C226.937 139.06 226.805 138.34 226.805 137.5C226.805 136.816 226.913 136.192 227.129 135.628C227.345 135.052 227.651 134.554 228.047 134.134C228.443 133.714 228.923 133.39 229.487 133.162C230.051 132.922 230.681 132.802 231.377 132.802C231.989 132.802 232.541 132.892 233.033 133.072C233.537 133.24 233.969 133.492 234.329 133.828C234.689 134.152 234.965 134.554 235.157 135.034C235.361 135.514 235.463 136.066 235.463 136.69C235.463 136.858 235.451 137.026 235.427 137.194C235.415 137.362 235.397 137.536 235.373 137.716H228.425C228.473 138.736 228.767 139.546 229.307 140.146C229.859 140.746 230.651 141.046 231.683 141.046C232.247 141.046 232.763 140.968 233.231 140.812C233.699 140.644 234.137 140.404 234.545 140.092L235.049 141.01ZM232.385 128.5L233.591 129.67L229.847 132.064L229.253 131.47L232.385 128.5ZM42.982 151.22L44.53 150.734V161.642C44.53 161.966 44.572 162.236 44.656 162.452C44.74 162.656 44.848 162.818 44.98 162.938C45.124 163.058 45.286 163.142 45.466 163.19C45.658 163.238 45.856 163.262 46.06 163.262C46.324 163.262 46.606 163.232 46.906 163.172V163.964C46.69 164.048 46.426 164.114 46.114 164.162C45.814 164.21 45.49 164.234 45.142 164.234C44.518 164.234 44.002 164.036 43.594 163.64C43.186 163.232 42.982 162.608 42.982 161.768V151.22ZM47.345 151.706H49.001L48.641 156.368H47.705L47.345 151.706ZM57.0326 163.37C56.7086 163.61 56.2946 163.814 55.7906 163.982C55.2986 164.15 54.7646 164.234 54.1886 164.234C53.5886 164.234 53.0786 164.156 52.6586 164C52.2506 163.832 51.9086 163.616 51.6326 163.352C51.3686 163.088 51.1766 162.788 51.0566 162.452C50.9366 162.116 50.8766 161.768 50.8766 161.408C50.8766 161.012 50.9426 160.628 51.0746 160.256C51.2066 159.872 51.3926 159.548 51.6326 159.284C52.0406 159.236 52.4786 159.194 52.9466 159.158C53.4146 159.122 53.8826 159.092 54.3506 159.068C54.8306 159.044 55.2986 159.032 55.7546 159.032C56.2106 159.02 56.6366 159.014 57.0326 159.014V157.862C57.0326 157.214 56.8526 156.746 56.4926 156.458C56.1446 156.158 55.6526 156.008 55.0166 156.008C54.5126 156.008 53.9966 156.098 53.4686 156.278C52.9526 156.458 52.5026 156.68 52.1186 156.944L51.4166 155.954C51.9566 155.582 52.5086 155.3 53.0726 155.108C53.6486 154.904 54.3026 154.802 55.0346 154.802C56.1626 154.802 57.0326 155.054 57.6446 155.558C58.2686 156.05 58.5806 156.836 58.5806 157.916V164.234L57.0326 163.37ZM57.0326 159.68C56.6126 159.728 56.2226 159.776 55.8626 159.824C55.5026 159.872 55.1486 159.92 54.8006 159.968C54.4646 160.004 54.1286 160.052 53.7926 160.112C53.4566 160.16 53.1026 160.214 52.7306 160.274C52.5746 160.55 52.4966 160.856 52.4966 161.192C52.4966 161.432 52.5326 161.666 52.6046 161.894C52.6766 162.11 52.7846 162.308 52.9286 162.488C53.0846 162.656 53.2826 162.794 53.5226 162.902C53.7626 163.01 54.0506 163.064 54.3866 163.064C54.8786 163.064 55.3646 163.01 55.8446 162.902C56.3246 162.782 56.7206 162.656 57.0326 162.524V159.68ZM61.5797 154.802L63.1277 155.288C63.5117 155.12 63.8957 155 64.2797 154.928C64.6637 154.844 65.0837 154.802 65.5397 154.802C66.1877 154.802 66.7877 154.898 67.3397 155.09C67.9037 155.282 68.3957 155.57 68.8157 155.954C69.2357 156.326 69.5657 156.8 69.8057 157.376C70.0457 157.94 70.1657 158.594 70.1657 159.338C70.1657 160.142 70.0397 160.85 69.7877 161.462C69.5357 162.074 69.1937 162.584 68.7617 162.992C68.3417 163.4 67.8437 163.712 67.2677 163.928C66.7037 164.132 66.0977 164.234 65.4497 164.234C65.0057 164.234 64.5857 164.198 64.1897 164.126C63.7937 164.054 63.4397 163.958 63.1277 163.838V167.528L61.5797 168.14V154.802ZM63.1277 162.596C63.4517 162.716 63.7937 162.812 64.1537 162.884C64.5137 162.956 64.8857 162.992 65.2697 162.992C66.3017 162.992 67.1057 162.692 67.6817 162.092C68.2577 161.492 68.5457 160.622 68.5457 159.482C68.5457 158.27 68.2157 157.364 67.5557 156.764C66.8957 156.152 65.9717 155.846 64.7837 155.846C64.5437 155.846 64.2797 155.858 63.9917 155.882C63.7037 155.894 63.4157 155.924 63.1277 155.972V162.596ZM72.5484 154.802L74.0964 155.288C74.4804 155.12 74.8644 155 75.2484 154.928C75.6324 154.844 76.0524 154.802 76.5084 154.802C77.1564 154.802 77.7564 154.898 78.3084 155.09C78.8724 155.282 79.3644 155.57 79.7844 155.954C80.2044 156.326 80.5344 156.8 80.7744 157.376C81.0144 157.94 81.1344 158.594 81.1344 159.338C81.1344 160.142 81.0084 160.85 80.7564 161.462C80.5044 162.074 80.1624 162.584 79.7304 162.992C79.3104 163.4 78.8124 163.712 78.2364 163.928C77.6724 164.132 77.0664 164.234 76.4184 164.234C75.9744 164.234 75.5544 164.198 75.1584 164.126C74.7624 164.054 74.4084 163.958 74.0964 163.838V167.528L72.5484 168.14V154.802ZM74.0964 162.596C74.4204 162.716 74.7624 162.812 75.1224 162.884C75.4824 162.956 75.8544 162.992 76.2384 162.992C77.2704 162.992 78.0744 162.692 78.6504 162.092C79.2264 161.492 79.5144 160.622 79.5144 159.482C79.5144 158.27 79.1844 157.364 78.5244 156.764C77.8644 156.152 76.9404 155.846 75.7524 155.846C75.5124 155.846 75.2484 155.858 74.9604 155.882C74.6724 155.894 74.3844 155.924 74.0964 155.972V162.596ZM83.4644 151.22L85.0124 150.734V161.642C85.0124 161.966 85.0544 162.236 85.1384 162.452C85.2224 162.656 85.3304 162.818 85.4624 162.938C85.6064 163.058 85.7684 163.142 85.9484 163.19C86.1404 163.238 86.3384 163.262 86.5424 163.262C86.8064 163.262 87.0884 163.232 87.3884 163.172V163.964C87.1724 164.048 86.9084 164.114 86.5964 164.162C86.2964 164.21 85.9724 164.234 85.6244 164.234C85.0004 164.234 84.4844 164.036 84.0764 163.64C83.6684 163.232 83.4644 162.608 83.4644 161.768V151.22ZM89.9162 153.218C89.6282 153.218 89.3822 153.122 89.1782 152.93C88.9742 152.738 88.8722 152.486 88.8722 152.174C88.8722 151.862 88.9742 151.61 89.1782 151.418C89.3822 151.226 89.6282 151.13 89.9162 151.13C90.2162 151.13 90.4682 151.226 90.6722 151.418C90.8762 151.61 90.9782 151.862 90.9782 152.174C90.9782 152.486 90.8762 152.738 90.6722 152.93C90.4682 153.122 90.2162 153.218 89.9162 153.218ZM89.1422 155.288L90.6902 154.802V164H89.1422V155.288ZM100.928 163.298C100.484 163.598 100.01 163.832 99.506 164C99.014 164.156 98.408 164.234 97.688 164.234C96.968 164.234 96.32 164.12 95.744 163.892C95.18 163.652 94.694 163.322 94.286 162.902C93.89 162.482 93.584 161.984 93.368 161.408C93.164 160.832 93.062 160.202 93.062 159.518C93.062 158.774 93.182 158.108 93.422 157.52C93.662 156.932 93.992 156.44 94.412 156.044C94.844 155.636 95.354 155.33 95.942 155.126C96.53 154.91 97.178 154.802 97.886 154.802C99.146 154.802 100.118 155.03 100.802 155.486L100.118 156.62C99.59 156.26 98.798 156.08 97.742 156.08C96.722 156.08 95.954 156.392 95.438 157.016C94.934 157.628 94.682 158.462 94.682 159.518C94.682 160.034 94.76 160.514 94.916 160.958C95.072 161.402 95.294 161.786 95.582 162.11C95.87 162.434 96.218 162.686 96.626 162.866C97.034 163.046 97.49 163.136 97.994 163.136C98.51 163.136 98.978 163.076 99.398 162.956C99.818 162.824 100.22 162.656 100.604 162.452L100.928 163.298ZM108.607 163.37C108.283 163.61 107.869 163.814 107.365 163.982C106.873 164.15 106.339 164.234 105.763 164.234C105.163 164.234 104.653 164.156 104.233 164C103.825 163.832 103.483 163.616 103.207 163.352C102.943 163.088 102.751 162.788 102.631 162.452C102.511 162.116 102.451 161.768 102.451 161.408C102.451 161.012 102.517 160.628 102.649 160.256C102.781 159.872 102.967 159.548 103.207 159.284C103.615 159.236 104.053 159.194 104.521 159.158C104.989 159.122 105.457 159.092 105.925 159.068C106.405 159.044 106.873 159.032 107.329 159.032C107.785 159.02 108.211 159.014 108.607 159.014V157.862C108.607 157.214 108.427 156.746 108.067 156.458C107.719 156.158 107.227 156.008 106.591 156.008C106.087 156.008 105.571 156.098 105.043 156.278C104.527 156.458 104.077 156.68 103.693 156.944L102.991 155.954C103.531 155.582 104.083 155.3 104.647 155.108C105.223 154.904 105.877 154.802 106.609 154.802C107.737 154.802 108.607 155.054 109.219 155.558C109.843 156.05 110.155 156.836 110.155 157.916V164.234L108.607 163.37ZM108.607 159.68C108.187 159.728 107.797 159.776 107.437 159.824C107.077 159.872 106.723 159.92 106.375 159.968C106.039 160.004 105.703 160.052 105.367 160.112C105.031 160.16 104.677 160.214 104.305 160.274C104.149 160.55 104.071 160.856 104.071 161.192C104.071 161.432 104.107 161.666 104.179 161.894C104.251 162.11 104.359 162.308 104.503 162.488C104.659 162.656 104.857 162.794 105.097 162.902C105.337 163.01 105.625 163.064 105.961 163.064C106.453 163.064 106.939 163.01 107.419 162.902C107.899 162.782 108.295 162.656 108.607 162.524V159.68ZM113.55 156.17H111.948V155.432L113.55 155.27V152.678L115.098 152.192V155.198L118.122 154.82L117.942 156.17H115.098V161.84C115.098 162.224 115.218 162.53 115.458 162.758C115.71 162.974 116.028 163.082 116.412 163.082C116.832 163.082 117.186 163.058 117.474 163.01C117.774 162.962 118.014 162.908 118.194 162.848L118.41 163.694C118.086 163.826 117.714 163.946 117.294 164.054C116.886 164.174 116.454 164.234 115.998 164.234C115.242 164.234 114.642 164.054 114.198 163.694C113.766 163.334 113.55 162.794 113.55 162.074V156.17ZM120.924 153.218C120.636 153.218 120.39 153.122 120.186 152.93C119.982 152.738 119.88 152.486 119.88 152.174C119.88 151.862 119.982 151.61 120.186 151.418C120.39 151.226 120.636 151.13 120.924 151.13C121.224 151.13 121.476 151.226 121.68 151.418C121.884 151.61 121.986 151.862 121.986 152.174C121.986 152.486 121.884 152.738 121.68 152.93C121.476 153.122 121.224 153.218 120.924 153.218ZM120.15 155.288L121.698 154.802V164H120.15V155.288ZM128.732 164.234C127.964 164.234 127.286 164.108 126.698 163.856C126.122 163.604 125.636 163.262 125.24 162.83C124.856 162.398 124.562 161.9 124.358 161.336C124.166 160.76 124.07 160.154 124.07 159.518C124.07 158.894 124.166 158.3 124.358 157.736C124.562 157.16 124.856 156.656 125.24 156.224C125.636 155.792 126.122 155.45 126.698 155.198C127.286 154.934 127.964 154.802 128.732 154.802C129.5 154.802 130.172 154.934 130.748 155.198C131.336 155.45 131.822 155.792 132.206 156.224C132.602 156.656 132.896 157.16 133.088 157.736C133.292 158.3 133.394 158.894 133.394 159.518C133.394 160.154 133.292 160.76 133.088 161.336C132.896 161.9 132.602 162.398 132.206 162.83C131.822 163.262 131.336 163.604 130.748 163.856C130.172 164.108 129.5 164.234 128.732 164.234ZM128.732 163.028C129.224 163.028 129.656 162.944 130.028 162.776C130.412 162.596 130.73 162.356 130.982 162.056C131.246 161.744 131.444 161.378 131.576 160.958C131.708 160.526 131.774 160.052 131.774 159.536C131.774 159.02 131.708 158.546 131.576 158.114C131.444 157.682 131.246 157.31 130.982 156.998C130.73 156.686 130.412 156.446 130.028 156.278C129.656 156.098 129.224 156.008 128.732 156.008C128.24 156.008 127.802 156.098 127.418 156.278C127.046 156.446 126.728 156.686 126.464 156.998C126.212 157.31 126.02 157.682 125.888 158.114C125.756 158.546 125.69 159.02 125.69 159.536C125.69 160.052 125.756 160.526 125.888 160.958C126.02 161.378 126.212 161.744 126.464 162.056C126.728 162.356 127.046 162.596 127.418 162.776C127.802 162.944 128.24 163.028 128.732 163.028ZM135.777 154.802L137.325 155.684C137.781 155.456 138.291 155.252 138.855 155.072C139.431 154.892 140.061 154.802 140.745 154.802C141.825 154.802 142.605 155.09 143.085 155.666C143.577 156.242 143.823 157.046 143.823 158.078V164H142.275V158.006C142.275 157.358 142.113 156.872 141.789 156.548C141.477 156.224 140.925 156.062 140.133 156.062C139.749 156.062 139.329 156.098 138.873 156.17C138.429 156.242 137.913 156.344 137.325 156.476V164H135.777V154.802ZM151.48 151.706H153.118L157.546 156.512L161.992 151.706H163.63V164H161.992V153.776L157.546 158.636L153.118 153.794V164H151.48V151.706ZM167.23 151.706H175.24V153.074H168.868V157.286L173.674 156.71V158.15H168.868V162.614H175.384V164H167.23V151.706ZM180.24 153.128H176.28V151.706H185.838V153.128H181.878V164H180.24V153.128ZM187.814 151.706H195.824V153.074H189.452V157.286L194.258 156.71V158.15H189.452V162.614H195.968V164H187.814V151.706ZM198.484 151.58L199.978 152.03C200.458 151.862 200.938 151.724 201.418 151.616C201.91 151.496 202.444 151.436 203.02 151.436C203.776 151.436 204.43 151.526 204.982 151.706C205.546 151.874 206.008 152.114 206.368 152.426C206.728 152.738 206.992 153.11 207.16 153.542C207.34 153.974 207.43 154.454 207.43 154.982C207.43 155.846 207.154 156.614 206.602 157.286C206.05 157.958 205.258 158.444 204.226 158.744L207.916 164H205.63L202.894 158.942H200.122V164H198.484V151.58ZM202.156 157.718C203.368 157.718 204.262 157.496 204.838 157.052C205.414 156.608 205.702 155.954 205.702 155.09C205.702 154.334 205.426 153.74 204.874 153.308C204.334 152.864 203.524 152.642 202.444 152.642C201.904 152.642 201.418 152.666 200.986 152.714C200.566 152.75 200.278 152.786 200.122 152.822V157.718H202.156ZM93.0061 173.706H94.6441L99.0721 178.512L103.518 173.706H105.156V186H103.518V175.776L99.0721 180.636L94.6441 175.794V186H93.0061V173.706ZM114.12 186.234C113.124 186.234 112.248 186.072 111.492 185.748C110.736 185.412 110.1 184.956 109.584 184.38C109.08 183.804 108.696 183.126 108.432 182.346C108.168 181.566 108.036 180.726 108.036 179.826C108.036 178.926 108.162 178.086 108.414 177.306C108.678 176.526 109.068 175.848 109.584 175.272C110.1 174.696 110.736 174.246 111.492 173.922C112.248 173.598 113.124 173.436 114.12 173.436C115.116 173.436 115.992 173.598 116.748 173.922C117.516 174.246 118.152 174.696 118.656 175.272C119.172 175.836 119.562 176.508 119.826 177.288C120.09 178.068 120.222 178.914 120.222 179.826C120.222 180.738 120.09 181.584 119.826 182.364C119.562 183.144 119.172 183.822 118.656 184.398C118.152 184.974 117.516 185.424 116.748 185.748C115.992 186.072 115.116 186.234 114.12 186.234ZM114.12 184.866C115.488 184.866 116.556 184.446 117.324 183.606C118.104 182.766 118.494 181.506 118.494 179.826C118.494 178.998 118.392 178.272 118.188 177.648C117.984 177.012 117.69 176.484 117.306 176.064C116.934 175.632 116.478 175.314 115.938 175.11C115.398 174.894 114.792 174.786 114.12 174.786C112.764 174.786 111.696 175.212 110.916 176.064C110.148 176.904 109.764 178.158 109.764 179.826C109.764 181.494 110.148 182.754 110.916 183.606C111.696 184.446 112.764 184.866 114.12 184.866ZM123.1 173.58L124.594 174.03C124.918 173.934 125.332 173.814 125.836 173.67C126.34 173.514 126.898 173.436 127.51 173.436C128.218 173.436 128.83 173.514 129.346 173.67C129.862 173.814 130.288 174.018 130.624 174.282C130.96 174.546 131.206 174.852 131.362 175.2C131.53 175.548 131.614 175.926 131.614 176.334C131.614 177.114 131.392 177.726 130.948 178.17C130.516 178.614 129.916 178.956 129.148 179.196C129.532 179.28 129.904 179.4 130.264 179.556C130.636 179.7 130.96 179.898 131.236 180.15C131.524 180.402 131.752 180.72 131.92 181.104C132.1 181.476 132.19 181.926 132.19 182.454C132.19 183.666 131.71 184.602 130.75 185.262C129.802 185.91 128.428 186.234 126.628 186.234C125.524 186.234 124.348 186.078 123.1 185.766V173.58ZM124.738 184.578C125.11 184.674 125.482 184.746 125.854 184.794C126.226 184.842 126.586 184.866 126.934 184.866C127.426 184.866 127.888 184.824 128.32 184.74C128.764 184.656 129.148 184.518 129.472 184.326C129.796 184.134 130.054 183.882 130.246 183.57C130.438 183.246 130.534 182.85 130.534 182.382C130.534 181.566 130.246 180.99 129.67 180.654C129.094 180.306 128.188 180.132 126.952 180.132H124.738V184.578ZM126.574 178.836C127.198 178.836 127.726 178.782 128.158 178.674C128.602 178.566 128.956 178.416 129.22 178.224C129.484 178.02 129.676 177.78 129.796 177.504C129.916 177.228 129.976 176.922 129.976 176.586C129.976 175.854 129.712 175.35 129.184 175.074C128.656 174.786 127.918 174.642 126.97 174.642C126.43 174.642 125.98 174.66 125.62 174.696C125.272 174.732 124.978 174.774 124.738 174.822V178.836H126.574ZM134.895 173.958L136.533 173.436V186H134.895V173.958ZM140.133 173.706H141.771V184.776L147.729 184.326V186H140.133V173.706ZM149.924 173.706H157.934V175.074H151.562V179.286L156.368 178.71V180.15H151.562V184.614H158.078V186H149.924V173.706Z" fill="white"/>
</svg>
